<svg xmlns="http://www.w3.org/2000/svg" viewBox="0 0 435.78 92.61"><defs><style>.cls-1{fill:#5a5448;}.cls-2{fill:#0f83d0;}.cls-3{fill:#e5e4e3;}.cls-4{fill:#443f35;}.cls-5{fill:#6d675d;}.cls-6{fill:#bababa;}</style></defs><title>Asset 9</title><g id="Layer_2" data-name="Layer 2"><g id="Layer_1-2" data-name="Layer 1"><polygon class="cls-1" points="419.27 92.61 19.97 92.61 0 5.77 435.79 0 419.27 92.61"/><polygon class="cls-2" points="408.3 83 27.35 82.94 11.51 10.6 426.65 16.31 408.3 83"/><path class="cls-3" d="M108.57,27.18V59.81h-2.85l-21-26.47V59.81H81.3V27.18h2.84l21,26.48V27.18Z"/><path class="cls-3" d="M139.84,48.58H119.33a8.79,8.79,0,0,0,2.94,6.18A9.74,9.74,0,0,0,129,57.11a10.52,10.52,0,0,0,4.2-.82,9.18,9.18,0,0,0,3.31-2.4L138.35,56a10.54,10.54,0,0,1-4.08,3,13.83,13.83,0,0,1-5.38,1,13.62,13.62,0,0,1-6.69-1.6A11.68,11.68,0,0,1,117.65,54,12.72,12.72,0,0,1,116,47.55a13.16,13.16,0,0,1,1.56-6.43,11.29,11.29,0,0,1,4.29-4.43A12,12,0,0,1,128,35.11a11.91,11.91,0,0,1,6.11,1.58,11.25,11.25,0,0,1,4.24,4.41,13.2,13.2,0,0,1,1.54,6.45Zm-17.78-8.37a8.9,8.9,0,0,0-2.73,5.9h17.39a8.9,8.9,0,0,0-2.73-5.9,9,9,0,0,0-11.93,0Z"/><path class="cls-3" d="M182.17,35.29l-9.28,24.52h-3.12L162,39.72l-7.74,20.09h-3.12l-9.23-24.52h3.17l7.69,20.84,7.88-20.84h2.84l7.83,20.84,7.79-20.84Z"/><path class="cls-3" d="M223.05,43.5h3.31V55.94A15.91,15.91,0,0,1,221,59a19.94,19.94,0,0,1-6.57,1.07A18,18,0,0,1,205.57,58,15.85,15.85,0,0,1,199.41,52a16.48,16.48,0,0,1-2.23-8.51A16.46,16.46,0,0,1,199.41,35a15.92,15.92,0,0,1,6.16-5.94,18.11,18.11,0,0,1,8.85-2.15,19.23,19.23,0,0,1,6.86,1.19,13.63,13.63,0,0,1,5.26,3.52L224.4,33.8A13.41,13.41,0,0,0,214.56,30a14.59,14.59,0,0,0-7.15,1.75,12.77,12.77,0,0,0-5,4.85,14,14,0,0,0,0,13.82,13,13,0,0,0,5,4.84,15.46,15.46,0,0,0,15.66-.74v-11Z"/><path class="cls-3" d="M251.34,37.51q2.57,2.4,2.56,7.11V59.81h-3.17V56a7.56,7.56,0,0,1-3.28,3,11.44,11.44,0,0,1-5.15,1.08,10.13,10.13,0,0,1-6.53-2,6.74,6.74,0,0,1-.16-10.21q2.25-1.91,7.2-1.91h7.78V44.48a6.3,6.3,0,0,0-1.77-4.83A7.31,7.31,0,0,0,243.65,38a13,13,0,0,0-4.48.77,11.28,11.28,0,0,0-3.68,2.12L234,38.42A13.21,13.21,0,0,1,238.47,36a17.59,17.59,0,0,1,5.5-.86Q248.77,35.11,251.34,37.51Zm-3.73,18.64a7.56,7.56,0,0,0,3-3.7v-4H242.9q-6.28,0-6.29,4.38a4,4,0,0,0,1.63,3.38,7.46,7.46,0,0,0,4.57,1.23A8.69,8.69,0,0,0,247.61,56.15Z"/><path class="cls-3" d="M300.73,37.77q2.63,2.65,2.63,7.83V59.81h-3.31V45.92a8.32,8.32,0,0,0-1.84-5.83,6.73,6.73,0,0,0-5.2-2,7.83,7.83,0,0,0-6,2.35A9.19,9.19,0,0,0,284.81,47V59.81H281.5V45.92a8.37,8.37,0,0,0-1.84-5.83,6.8,6.8,0,0,0-5.25-2,7.88,7.88,0,0,0-6,2.35A9.15,9.15,0,0,0,266.21,47V59.81H262.9V35.29h3.17v4.48a8.84,8.84,0,0,1,3.64-3.45,11.41,11.41,0,0,1,5.36-1.21,10.45,10.45,0,0,1,5.33,1.3,8,8,0,0,1,3.38,3.87,9.62,9.62,0,0,1,3.89-3.8,12.1,12.1,0,0,1,5.81-1.37A9.73,9.73,0,0,1,300.73,37.77Z"/><path class="cls-3" d="M333.8,48.58H313.29a8.71,8.71,0,0,0,2.94,6.18,9.72,9.72,0,0,0,6.71,2.35,10.44,10.44,0,0,0,4.19-.82,9,9,0,0,0,3.31-2.4L332.31,56a10.54,10.54,0,0,1-4.08,3,13.86,13.86,0,0,1-5.38,1,13.62,13.62,0,0,1-6.69-1.6A11.62,11.62,0,0,1,311.61,54,12.62,12.62,0,0,1,310,47.55a13.16,13.16,0,0,1,1.56-6.43,11.29,11.29,0,0,1,4.29-4.43A12,12,0,0,1,322,35.11a11.91,11.91,0,0,1,6.11,1.58,11.32,11.32,0,0,1,4.24,4.41,13.31,13.31,0,0,1,1.54,6.45ZM316,40.21a8.85,8.85,0,0,0-2.73,5.9h17.39a8.9,8.9,0,0,0-2.73-5.9,9,9,0,0,0-11.93,0Z"/><polygon class="cls-4" points="408.3 83 419.27 92.61 19.97 92.61 27.35 82.94 408.3 83"/><polygon class="cls-5" points="426.65 16.31 435.79 0 0 5.77 11.51 10.6 426.65 16.31"/><polygon class="cls-6" points="14.74 25.38 11.51 10.6 124.51 12.15 13.22 12.11 14.74 25.38"/><path class="cls-6" d="M365.53,20.27l54.22,1.58S371.9,17.77,365.53,20.27Z"/><path class="cls-6" d="M31.16,78h20S37.68,76.32,31.16,78Z"/><polygon class="cls-4" points="78.86 83 116.16 76.11 87.62 83 84.16 88.75 84.36 83 63.16 86.3 78.86 83"/><polygon class="cls-4" points="234.59 8.15 229.71 13.6 233.06 20.65 232.03 13.63 234.59 8.15"/><polygon class="cls-4" points="410.46 75.14 348.34 79.88 410.46 72.24 419.27 82.94 410.46 75.14"/><polygon class="cls-4" points="361.25 54.35 384.72 54.35 361.18 52.98 354.15 56.34 361.25 54.35"/><polygon class="cls-4" points="14.21 51.04 18.14 41.87 25.86 43.5 18.73 43.29 14.21 51.04"/><polygon class="cls-4" points="41.15 26.68 54.19 22.09 58.48 24.39 53.28 24.39 41.15 26.68"/></g></g></svg>