<svg xmlns="http://www.w3.org/2000/svg" viewBox="0 0 90 123.51"><defs><style>.cls-1,.cls-4{fill:none;}.cls-1,.cls-2,.cls-3,.cls-6{stroke:#000;}.cls-1,.cls-2{stroke-linecap:round;stroke-linejoin:round;}.cls-2,.cls-5{fill:#fff;}.cls-3{fill:#ebce19;}.cls-3,.cls-4,.cls-6{stroke-miterlimit:10;}.cls-4{stroke:#fff;stroke-width:0.58px;}</style></defs><title>Asset 4</title><g id="Layer_2" data-name="Layer 2"><g id="Layer_1-2" data-name="Layer 1"><line class="cls-1" x1="75.28" y1="22.32" x2="89.5" y2="0.5"/><path class="cls-2" d="M84.63,47,43,111.09c-1,1.48-3.26,1.69-5.14.47L9,92.6c-1.87-1.22-2.6-3.4-1.64-4.88l41.6-64.1c2.65-4.1,9-4.67,14.17-1.29l17,11.16C85.25,36.86,87.27,42.89,84.63,47Z"/><path class="cls-3" d="M81.82,46.14,43.69,105.46,12.92,85.3,51.28,26.17c1.85-2.85,6.28-3.25,9.88-.89L78.67,36.75C82.26,39.1,83.67,43.3,81.82,46.14Z"/><path class="cls-4" d="M64.84,39.23a4,4,0,1,1-4.05-4A4.05,4.05,0,0,1,64.84,39.23Z"/><path class="cls-4" d="M53.16,79.89a4,4,0,1,1-4-4A4.05,4.05,0,0,1,53.16,79.89Z"/><path class="cls-4" d="M44.74,57.32a1.63,1.63,0,1,1-1.62-1.62A1.63,1.63,0,0,1,44.74,57.32Z"/><path class="cls-5" d="M50.08,39.4a1.62,1.62,0,1,1-1.62-1.62A1.63,1.63,0,0,1,50.08,39.4Z"/><path class="cls-4" d="M75.61,47A1.63,1.63,0,1,1,74,45.35,1.62,1.62,0,0,1,75.61,47Z"/><circle class="cls-5" cx="32.76" cy="88.76" r="1.62"/><path class="cls-4" d="M66.34,59.47a1.62,1.62,0,1,1-1.62-1.63A1.62,1.62,0,0,1,66.34,59.47Z"/><circle class="cls-4" cx="42.81" cy="97.11" r="1.62"/><path class="cls-4" d="M31.94,67.37a1.63,1.63,0,1,1-1.62-1.62A1.62,1.62,0,0,1,31.94,67.37Z"/><polygon class="cls-6" points="43.69 105.47 41.34 109.07 10.58 88.9 12.92 85.3 43.69 105.47"/><path class="cls-2" d="M75.88,26.16l1-1.46a2.3,2.3,0,0,0-.66-3.19l-.6-.38a2.29,2.29,0,0,0-3.18.66l-1,1.46Z"/><path d="M79.37,33l.39-.61a3.34,3.34,0,0,0-1-4.61l-10-6.58a3.33,3.33,0,0,0-4.62,1l-.38.58Z"/><path d="M19.91,108.68c9.86,6.45,17,12.95,16,14.5s-9.81-2.43-19.67-8.89-17-13-16-14.5S10.06,102.22,19.91,108.68Z"/><path class="cls-2" d="M20.27,108.13c9.85,6.46,17,13,16,14.5s-9.82-2.42-19.67-8.88-17-13-16-14.5S10.41,101.67,20.27,108.13Z"/><polygon class="cls-6" points="34.2 109 12.78 94.97 10.36 98.7 33.38 110.25 34.2 109"/><path class="cls-2" d="M10.36,98.7l-2.83,4.35s1.82,2.42,10.8,8.3c6.92,4.54,10.61,5.73,10.61,5.73l4.44-6.83Z"/><line class="cls-1" x1="82.73" y1="43.55" x2="71.81" y2="36.38"/><line class="cls-1" x1="79.82" y1="48.01" x2="71.98" y2="42.87"/><line class="cls-1" x1="77.13" y1="52.14" x2="66.22" y2="44.98"/><line class="cls-1" x1="74.22" y1="56.61" x2="66.39" y2="51.47"/><line class="cls-1" x1="71.54" y1="60.74" x2="60.62" y2="53.57"/><line class="cls-1" x1="68.63" y1="65.2" x2="60.79" y2="60.06"/><line class="cls-1" x1="65.94" y1="69.33" x2="55.03" y2="62.16"/><line class="cls-1" x1="63.04" y1="73.8" x2="55.2" y2="68.66"/><line class="cls-1" x1="60.35" y1="77.92" x2="49.43" y2="70.76"/><line class="cls-1" x1="57.44" y1="82.39" x2="49.6" y2="77.25"/><line class="cls-1" x1="54.76" y1="86.52" x2="43.84" y2="79.35"/><line class="cls-1" x1="51.85" y1="90.99" x2="44.01" y2="85.84"/><line class="cls-1" x1="49.16" y1="95.11" x2="38.24" y2="87.95"/><line class="cls-1" x1="46.25" y1="99.58" x2="38.41" y2="94.44"/><line class="cls-4" x1="51.38" y1="33.57" x2="55.22" y2="27.78"/><line class="cls-4" x1="34.68" y1="58.74" x2="49.42" y2="36.52"/></g></g></svg>