<svg xmlns="http://www.w3.org/2000/svg" viewBox="0 0 361.9 139.27"><defs><style>.cls-1{fill:#5a5448;}.cls-2{fill:#97877a;}.cls-3{fill:#443f35;}.cls-4{fill:#6d675d;}.cls-5{fill:#e5e4e3;}.cls-6{fill:#bababa;}</style></defs><title>Asset 13</title><g id="Layer_2" data-name="Layer 2"><g id="Layer_1-2" data-name="Layer 1"><polygon class="cls-1" points="361.9 122.37 6.63 139.27 0 0 356.55 9.97 361.9 122.37"/><polygon class="cls-2" points="343.02 108.64 20.16 112.81 18.88 13.73 341.98 28.68 343.02 108.64"/><polygon class="cls-3" points="20.16 112.81 6.63 139.27 361.9 122.37 343.02 108.64 20.16 112.81"/><polygon class="cls-4" points="0 0 18.88 13.73 341.98 28.68 356.55 9.97 0 0"/><path class="cls-5" d="M128.07,79.1,128,54.19,115.79,74.71h-4.34l-12.16-20V79.1h-9V37.58h7.94l15.55,25.8,15.3-25.8H137l.12,41.52Z"/><path class="cls-5" d="M179.08,71.39V79.1H146.93V37.58h31.38v7.71H156.48v9h19.28v7.47H156.48v9.61Z"/><path class="cls-5" d="M224.82,37.58V79.1h-7.9l-20.7-25.21V79.1h-9.49V37.58h8l20.64,25.21V37.58Z"/><path class="cls-5" d="M239.26,74.89q-4.95-4.92-4.95-14.06V37.58h9.61V60.47q0,11.16,9.25,11.16,4.52,0,6.88-2.7t2.37-8.46V37.58h9.5V60.83q0,9.14-5,14.06t-13.85,4.92Q244.22,79.81,239.26,74.89Z"/><polygon class="cls-3" points="19.18 36.82 8.32 55.98 19.24 41.71 29.44 41.71 19.18 36.82"/><polygon class="cls-3" points="353.59 88.8 343.02 80.35 315.06 93.99 343.02 83.72 353.59 88.8"/><polygon class="cls-3" points="168.6 14.34 147.65 19.69 138.64 28.68 150.26 20.3 168.6 14.34"/><polygon class="cls-6" points="138.85 28.89 138.42 28.46 147.5 19.41 147.58 19.39 168.53 14.04 168.68 14.64 147.81 19.96 138.85 28.89"/><path class="cls-6" d="M18.88,13.73l85.24,3.94S29.07,16,18.88,13.73Z"/><path class="cls-3" d="M342,28.68l1,42.59S339.86,39.5,342,28.68Z"/><path class="cls-3" d="M30.62,91.27l61.76-4.1S38.57,93.22,30.62,91.27Z"/><polygon class="cls-3" points="55.31 90.7 39.79 102.66 58.57 89.41 55.31 90.7"/><rect class="cls-6" x="37.74" y="96.37" width="19.59" height="0.61" transform="translate(-49.11 49.08) rotate(-37.6)"/><path class="cls-6" d="M20.16,112.81l120.52-1.56S27.66,110.73,20.16,112.81Z"/><polygon class="cls-3" points="301.81 19.84 349 19.84 351.24 33.55 347.78 21.51 301.81 19.84"/><rect class="cls-6" x="30.54" y="88.87" width="61.9" height="0.61" transform="translate(-5.72 4.23) rotate(-3.76)"/><path class="cls-6" d="M236.9,23.82l74.6,4.86S257.29,28.14,236.9,23.82Z"/><polygon class="cls-3" points="29.44 7.16 110.51 11.13 92.38 9.14 191.23 11.13 89.1 7.16 89.72 9.14 29.44 7.16"/><path class="cls-3" d="M217.73,17.67l44.64-7.56S223.84,15.45,217.73,17.67Z"/></g></g></svg>