<svg xmlns="http://www.w3.org/2000/svg" viewBox="0 0 616.45 680.65"><defs><style>.cls-1{fill:#5a5448;}.cls-2{fill:#97877a;}.cls-3{fill:#443f35;}.cls-4{fill:#6d675d;}.cls-5{fill:#bababa;}.cls-6{fill:#26231e;}</style></defs><title>Asset 12</title><g id="Layer_2" data-name="Layer 2"><g id="Layer_1-2" data-name="Layer 1"><polygon class="cls-1" points="616.45 680.64 0 607.7 33.49 14.68 598.36 0 616.45 680.64"/><polygon class="cls-2" points="580.27 625.52 23.38 588.21 52.84 36.77 577.72 23.12 580.27 625.52"/><polygon class="cls-3" points="580.27 625.52 616.45 680.64 0 607.7 23.38 588.21 580.27 625.52"/><polygon class="cls-4" points="577.72 23.12 598.36 0 33.49 14.68 52.84 36.77 577.72 23.12"/><polygon class="cls-3" points="589.03 350.08 578.97 318.9 550.3 310.13 579.01 327.65 589.03 350.08"/><polygon class="cls-3" points="590.42 138.84 578.18 130.75 558.04 143.39 578.2 137.07 590.42 138.84"/><polygon class="cls-5" points="52.84 36.77 50.56 79.57 54.96 38.53 82.88 35.98 52.84 36.77"/><path class="cls-5" d="M32.49,417.74l12-224S39.37,377.37,32.49,417.74Z"/><path class="cls-5" d="M580.27,449.89V606.52S574.78,473.45,580.27,449.89Z"/><polygon class="cls-3" points="32.49 104.99 47.54 136.02 69.23 133.6 47.25 141.42 32.49 104.99"/><polygon class="cls-3" points="15.01 516.83 27.64 508.48 59.45 516.83 27.42 512.65 15.01 516.83"/><polygon class="cls-6" points="580.27 625.52 598.36 660.33 616.45 680.64 580.27 625.52"/><path class="cls-6" d="M290.6,621.19,541.74,631S311,624.45,290.6,621.19Z"/><path class="cls-6" d="M76.67,601.84l118.62,19.35S95,603.06,76.67,601.84Z"/><polygon class="cls-3" points="487.77 42.02 491.08 28.29 513.1 13.64 487 25.82 487.77 42.02"/><polygon class="cls-3" points="75.35 18.38 97.19 36.77 86.27 56.15 102.26 35.98 75.35 18.38"/><path class="cls-3" d="M500.05,69.6l62.89-10.68S511.16,70.21,500.05,69.6Z"/><path class="cls-3" d="M104.6,577.16l166-3.67S127.53,573.49,104.6,577.16Z"/><polygon class="cls-3" points="600.85 630.98 580.27 613.45 552.75 613.45 580.2 608.96 600.85 630.98"/><path class="cls-3" d="M400.68,588.21,502.4,606.52S421.88,588.66,400.68,588.21Z"/><path class="cls-5" d="M226.83,601.84l235.08,15.75S317,601.45,226.83,601.84Z"/></g></g></svg>