<svg xmlns="http://www.w3.org/2000/svg" viewBox="0 0 433.9 92.61"><defs><style>.cls-1{fill:#5a5448;}.cls-2{fill:#97877a;}.cls-3{fill:#e5e4e3;}.cls-4{fill:#443f35;}.cls-5{fill:#6d675d;}.cls-6{fill:#bababa;}.cls-7{fill:#26231e;}</style></defs><title>Asset 7</title><g id="Layer_2" data-name="Layer 2"><g id="Layer_1-2" data-name="Layer 1"><polygon class="cls-1" points="419.27 92.61 0 92.61 28.51 5.74 433.9 0 419.27 92.61"/><polygon class="cls-2" points="408.3 83 14.45 83 40.02 10.57 424.76 16.31 408.3 83"/><path class="cls-3" d="M135.3,57.93a15.88,15.88,0,0,1-6.16-6,16.48,16.48,0,0,1-2.21-8.48A16.48,16.48,0,0,1,129.14,35a15.88,15.88,0,0,1,6.16-6,18.84,18.84,0,0,1,17.52,0A15.84,15.84,0,0,1,159,35a16.4,16.4,0,0,1,2.24,8.51A16.49,16.49,0,0,1,159,52,15.84,15.84,0,0,1,152.82,58a18.92,18.92,0,0,1-17.52,0Zm15.78-2.66A12.66,12.66,0,0,0,156,50.42a14.41,14.41,0,0,0,0-13.84,12.59,12.59,0,0,0-4.89-4.85,14.9,14.9,0,0,0-14,0,12.66,12.66,0,0,0-4.94,4.85,14.2,14.2,0,0,0,0,13.84,12.72,12.72,0,0,0,4.94,4.85,14.9,14.9,0,0,0,14,0Z"/><path class="cls-3" d="M187.11,36.67a11.23,11.23,0,0,1,4.38,4.4,13.07,13.07,0,0,1,1.58,6.48,13.26,13.26,0,0,1-1.58,6.53,11.18,11.18,0,0,1-4.36,4.4,12.47,12.47,0,0,1-6.27,1.57,11.5,11.5,0,0,1-5.38-1.24,10.17,10.17,0,0,1-3.94-3.61V68.86h-3.31V35.29h3.17v4.85a10.22,10.22,0,0,1,3.94-3.73,11.54,11.54,0,0,1,5.52-1.3A12.63,12.63,0,0,1,187.11,36.67Zm-1.82,19.25a8.43,8.43,0,0,0,3.29-3.38,10.31,10.31,0,0,0,1.18-5,10.16,10.16,0,0,0-1.18-5,8.63,8.63,0,0,0-3.29-3.38,9.64,9.64,0,0,0-9.35,0,8.69,8.69,0,0,0-3.26,3.38,10.16,10.16,0,0,0-1.19,5,10.31,10.31,0,0,0,1.19,5,8.43,8.43,0,0,0,3.26,3.38,9.78,9.78,0,0,0,9.35,0Z"/><path class="cls-3" d="M212.74,58.32a6.19,6.19,0,0,1-2.3,1.28,9.17,9.17,0,0,1-2.87.45,6.51,6.51,0,0,1-7.18-7.14V38.09H196v-2.8h4.38V29.93h3.31v5.36h7.46v2.8H203.7V52.73a4.63,4.63,0,0,0,1.1,3.33,4.16,4.16,0,0,0,3.14,1.14,6.22,6.22,0,0,0,2-.32,4.91,4.91,0,0,0,1.66-.94Z"/><path class="cls-3" d="M218.71,29.23a2.25,2.25,0,0,1-.7-1.67,2.2,2.2,0,0,1,.7-1.63,2.34,2.34,0,0,1,1.73-.7,2.38,2.38,0,0,1,1.72.67,2.15,2.15,0,0,1,.7,1.61,2.44,2.44,0,0,1-4.15,1.72Zm0,6.06h3.31V59.81h-3.31Z"/><path class="cls-3" d="M234.93,58.44A11.75,11.75,0,0,1,230.46,54a13.5,13.5,0,0,1,0-12.86,11.53,11.53,0,0,1,4.47-4.43,13.69,13.69,0,0,1,12.77,0,11.44,11.44,0,0,1,4.46,4.43,13.72,13.72,0,0,1,0,12.86,11.65,11.65,0,0,1-4.46,4.46,13.54,13.54,0,0,1-12.77,0ZM246,55.92a8.25,8.25,0,0,0,3.24-3.38,11.2,11.2,0,0,0,0-10A8.19,8.19,0,0,0,246,39.19a9.82,9.82,0,0,0-9.37,0,8.43,8.43,0,0,0-3.26,3.38,11,11,0,0,0,0,10,8.43,8.43,0,0,0,3.26,3.38,9.82,9.82,0,0,0,9.37,0Z"/><path class="cls-3" d="M280.36,37.79q2.72,2.68,2.72,7.81V59.81h-3.31V45.92a8.11,8.11,0,0,0-1.91-5.83,7.19,7.19,0,0,0-5.45-2,8.42,8.42,0,0,0-6.27,2.35A8.9,8.9,0,0,0,263.83,47V59.81h-3.31V35.29h3.17v4.52a9.18,9.18,0,0,1,3.75-3.47A12.06,12.06,0,0,1,273,35.11,10,10,0,0,1,280.36,37.79Z"/><polygon class="cls-4" points="408.3 83 419.27 92.61 0 92.61 14.45 83 408.3 83"/><polygon class="cls-5" points="424.76 16.31 433.9 0 28.51 5.74 40.02 10.57 424.76 16.31"/><polygon class="cls-4" points="417.25 49.45 427.53 29.59 417.36 46.3 405.21 44.11 417.25 49.45"/><polygon class="cls-4" points="12 69.33 21.48 63.07 51.75 69.33 21.17 63.98 12 69.33"/><path class="cls-4" d="M132.16,6.19l-71.85,2S123,8.25,132.16,6.19Z"/><path class="cls-4" d="M295.75,75.91H400.93S310,73.87,295.75,75.91Z"/><path class="cls-4" d="M284.43,7.17l98.15-1S314.09,9.07,284.43,7.17Z"/><polyline class="cls-4" points="54.5 26.99 66.42 20.87 107.4 20.87 65.81 18.43"/><path class="cls-6" d="M231.2,13.42l159.33,2.89S260.53,18.5,231.2,13.42Z"/><path class="cls-7" d="M88.64,87.8H188.93S111.07,90.32,88.64,87.8Z"/></g></g></svg>