<svg xmlns="http://www.w3.org/2000/svg" viewBox="0 0 145.92 117.13"><defs><style>.cls-1{fill:#89bd9c;}.cls-1,.cls-2,.cls-3{stroke:#000;stroke-miterlimit:10;}.cls-2,.cls-3{fill:none;}.cls-3{stroke-linecap:round;}</style></defs><title>Asset 2</title><g id="Layer_2" data-name="Layer 2"><g id="Layer_1-2" data-name="Layer 1"><path class="cls-1" d="M69.54,108.64h0a3.34,3.34,0,0,1-3-3.75l2.19-16.18a3.45,3.45,0,0,1,3.86-2.91h0a3.34,3.34,0,0,1,3,3.75L73.4,105.73A3.44,3.44,0,0,1,69.54,108.64Z"/><path class="cls-1" d="M83.13.92S61.87,26.55,64.46,49.43A216.43,216.43,0,0,0,72,87.15s0,.94.17.56c.09.28.25-.44.25-.44A335,335,0,0,0,88.64,52.41C97.23,30.91,83.13.92,83.13.92Z"/><line class="cls-2" x1="80.45" y1="22.2" x2="72.18" y2="87.71"/><line class="cls-2" x1="83.13" y1="0.92" x2="80.45" y2="22.2"/><path class="cls-1" d="M17.19,18.65s5.19,31.27,23,45.95A246.32,246.32,0,0,0,71.42,86.79s.64.69.5.29c.26.15-.16-.46-.16-.46A363.61,363.61,0,0,0,57,51.88C47,31.32,17.19,18.65,17.19,18.65Z"/><line class="cls-2" x1="40.16" y1="47.37" x2="71.92" y2="87.08"/><line class="cls-2" x1="17.19" y1="18.65" x2="35.75" y2="41.85"/><path class="cls-1" d="M1.05,76.45S21.84,92,40.7,91a208,208,0,0,0,31.15-3.92s.78,0,.47-.11c.23,0-.36-.18-.36-.18A307.46,307.46,0,0,0,43.5,74.4C25.93,67.74,1.05,76.45,1.05,76.45Z"/><line class="cls-2" x1="49.05" y1="83.52" x2="72.32" y2="86.95"/><line class="cls-2" x1="1.05" y1="76.45" x2="44.72" y2="82.88"/><path class="cls-1" d="M29.25,110.19s18,0,27.85-8.14A136.79,136.79,0,0,0,72.5,87.34s.45-.28.21-.24c.1-.12-.28,0-.28,0-2.25.39-10.31,1.85-20.8,4.79C39.19,95.42,29.25,110.19,29.25,110.19Z"/><line class="cls-2" x1="29.25" y1="110.19" x2="72.71" y2="87.1"/><polyline class="cls-3" points="71.23 69.68 73.78 75.61 77.44 70.38"/><polyline class="cls-3" points="72.22 61.07 74.76 67 78.44 61.77"/><polyline class="cls-3" points="73.21 53.16 75.75 59.09 79.42 53.87"/><polyline class="cls-3" points="74.2 44.97 76.74 50.9 80.41 45.68"/><polyline class="cls-3" points="75.19 36.22 77.73 42.15 81.4 36.92"/><polyline class="cls-3" points="76.46 27.75 79 33.68 82.67 28.45"/><polyline class="cls-3" points="78.03 19.84 80.21 24.93 83.36 20.45"/><polyline class="cls-3" points="79.39 11.8 81.26 16.17 83.97 12.32"/><polyline class="cls-3" points="57.54 73.49 63.13 75.6 62.01 69.79"/><polyline class="cls-3" points="52.43 67.3 58.02 69.41 56.89 63.6"/><polyline class="cls-3" points="47.78 61.56 53.37 63.67 52.24 57.87"/><polyline class="cls-3" points="42.95 55.64 48.54 57.75 47.41 51.95"/><polyline class="cls-3" points="37.74 49.36 43.33 51.47 42.2 45.67"/><polyline class="cls-3" points="32.9 43.07 38.49 45.19 37.35 39.38"/><polyline class="cls-3" points="28.63 36.95 33.42 38.76 32.45 33.78"/><polyline class="cls-3" points="24.12 30.87 28.25 32.43 27.41 28.14"/><polyline class="cls-3" points="57.56 87.18 62.47 85.51 58.3 82.68"/><polyline class="cls-3" points="50.56 86.21 55.47 84.53 51.3 81.71"/><polyline class="cls-3" points="44.13 85.25 49.04 83.58 44.87 80.75"/><polyline class="cls-3" points="37.47 84.29 42.38 82.62 38.21 79.79"/><polyline class="cls-3" points="30.35 83.31 35.26 81.64 31.09 78.81"/><polyline class="cls-3" points="23.46 82.14 28.37 80.47 24.2 77.64"/><polyline class="cls-3" points="17.05 80.76 21.26 79.33 17.68 76.9"/><polyline class="cls-3" points="10.52 79.53 14.14 78.3 11.06 76.21"/><polyline class="cls-3" points="63.51 93.51 65.32 90.87 62.21 91.01"/><polyline class="cls-3" points="59.68 95.62 61.49 92.98 58.38 93.12"/><polyline class="cls-3" points="56.15 97.53 57.96 94.89 54.85 95.03"/><polyline class="cls-3" points="52.5 99.52 54.31 96.88 51.2 97.02"/><polyline class="cls-3" points="48.62 101.68 50.42 99.03 47.32 99.18"/><polyline class="cls-3" points="44.78 103.64 46.59 101 43.48 101.14"/><polyline class="cls-3" points="41.1 105.34 42.64 103.07 39.98 103.19"/><polyline class="cls-3" points="37.41 107.15 38.74 105.2 36.45 105.31"/><path class="cls-1" d="M137.38,27.71s-9.72,30.17-29.44,42.09a246.32,246.32,0,0,1-34.2,17.36s-.74.59-.55.22c-.27.1.24-.44.24-.44A362.26,362.26,0,0,1,93.15,54.75C106,35.88,137.38,27.71,137.38,27.71Z"/><line class="cls-2" x1="110.44" y1="52.75" x2="73.19" y2="87.38"/><line class="cls-2" x1="137.38" y1="27.71" x2="115.62" y2="47.94"/><path class="cls-1" d="M144.86,87.25S122,99.58,103.5,95.81a206,206,0,0,1-30.23-8.45s-.78-.06-.45-.17c-.22-.08.39-.13.39-.13,3.15-1,14.47-4.67,30-8.06C121.53,75,144.86,87.25,144.86,87.25Z"/><line class="cls-2" x1="96.34" y1="87.21" x2="72.82" y2="87.19"/><line class="cls-2" x1="144.86" y1="87.25" x2="100.72" y2="87.22"/><path class="cls-1" d="M112,116.5s-17.76-2.61-26.36-12.14A137.25,137.25,0,0,1,72.59,87.55s-.4-.35-.18-.27c-.08-.14.27.08.27.08,2.18.72,9.93,3.34,19.88,7.79C104.35,100.42,112,116.5,112,116.5Z"/><line class="cls-2" x1="112.02" y1="116.5" x2="72.41" y2="87.28"/><polyline class="cls-3" points="89.41 76.04 83.57 77.31 85.54 71.73"/><polyline class="cls-3" points="95.38 70.67 89.54 71.93 91.51 66.36"/><polyline class="cls-3" points="100.82 65.67 94.98 66.94 96.95 61.36"/><polyline class="cls-3" points="106.47 60.53 100.63 61.8 102.6 56.22"/><polyline class="cls-3" points="112.55 55.08 106.71 56.35 108.68 50.77"/><polyline class="cls-3" points="118.26 49.57 112.42 50.84 114.39 45.26"/><polyline class="cls-3" points="123.38 44.14 118.37 45.22 120.06 40.44"/><polyline class="cls-3" points="128.72 38.79 124.41 39.72 125.87 35.61"/><polyline class="cls-3" points="87.39 89.58 82.78 87.2 87.31 85.02"/><polyline class="cls-3" points="94.46 89.64 89.85 87.27 94.39 85.08"/><polyline class="cls-3" points="100.96 89.65 96.35 87.27 100.89 85.09"/><polyline class="cls-3" points="107.69 89.67 103.08 87.3 107.61 85.11"/><polyline class="cls-3" points="114.87 89.75 110.26 87.37 114.8 85.19"/><polyline class="cls-3" points="121.86 89.6 117.25 87.22 121.78 85.04"/><polyline class="cls-3" points="128.4 89.17 124.45 87.14 128.34 85.27"/><polyline class="cls-3" points="135.04 88.92 131.64 87.17 134.99 85.56"/><polyline class="cls-3" points="80.57 94.97 79.17 92.09 82.23 92.69"/><polyline class="cls-3" points="84.05 97.62 82.65 94.74 85.7 95.34"/><polyline class="cls-3" points="87.26 100.03 85.86 97.15 88.92 97.75"/><polyline class="cls-3" points="90.58 102.53 89.18 99.65 92.23 100.25"/><polyline class="cls-3" points="94.11 105.23 92.71 102.35 95.76 102.95"/><polyline class="cls-3" points="97.62 107.74 96.22 104.86 99.27 105.46"/><polyline class="cls-3" points="101.01 109.96 99.81 107.49 102.43 108"/><polyline class="cls-3" points="104.39 112.29 103.36 110.16 105.61 110.61"/></g></g></svg>