<svg xmlns="http://www.w3.org/2000/svg" viewBox="0 0 430.51 103.55"><defs><style>.cls-1{fill:#5a5448;}.cls-2{fill:#97877a;}.cls-3{fill:#e5e4e3;}.cls-4{fill:#443f35;}.cls-5{fill:#6d675d;}.cls-6{fill:#26231e;}.cls-7{fill:#bababa;}</style></defs><title>Asset 5</title><g id="Layer_2" data-name="Layer 2"><g id="Layer_1-2" data-name="Layer 1"><polygon class="cls-1" points="430.51 103.55 17.26 78.05 0 0 420.46 1.63 430.51 103.55"/><polygon class="cls-2" points="419.54 93.94 24.64 68.38 13.16 9.78 411.32 17.94 419.54 93.94"/><path class="cls-3" d="M196.71,59.28v3H173.63V29.63H196v3H177.08V44.22H194v2.94H177.08V59.27h19.63Z"/><path class="cls-3" d="M219,62.26,211.25,52l-7.83,10.26h-3.73l9.69-12.59-9.23-11.93h3.73l7.37,9.6,7.36-9.6h3.64L213,49.67l9.79,12.59Z"/><path class="cls-3" d="M228.26,31.68a2.33,2.33,0,0,1-.7-1.68,2.27,2.27,0,0,1,.7-1.63,2.5,2.5,0,0,1,3.45,0,2.15,2.15,0,0,1,.7,1.61,2.44,2.44,0,0,1-4.15,1.72Zm.05,6.06h3.31V62.26h-3.31Z"/><path class="cls-3" d="M253.76,60.77a6.3,6.3,0,0,1-2.31,1.28,9.4,9.4,0,0,1-2.86.44,7.21,7.21,0,0,1-5.32-1.86,7.13,7.13,0,0,1-1.86-5.27V40.54H237v-2.8h4.39V32.38h3.31v5.36h7.45v2.8h-7.45V55.17a4.67,4.67,0,0,0,1.09,3.34A4.16,4.16,0,0,0,249,59.65a6,6,0,0,0,2-.33,4.75,4.75,0,0,0,1.65-.93Z"/><polygon class="cls-4" points="419.54 93.94 430.51 103.55 17.26 78.05 24.64 68.38 419.54 93.94"/><polygon class="cls-5" points="411.32 17.94 420.46 1.63 0 0 13.16 9.78 411.32 17.94"/><polygon class="cls-4" points="415.69 58.4 402.09 67.04 415.97 60.91 421.66 62.26 415.69 58.4"/><polygon class="cls-4" points="5.75 13.23 16.27 25.64 22.95 23.62 16.72 27.93 5.75 13.23"/><path class="cls-4" d="M85.43,9H247.28S114.87,7.28,85.43,9Z"/><path class="cls-4" d="M275.41,9.78,394,8.22S317,5.27,275.41,9.78Z"/><path class="cls-4" d="M42.21,58.4C41,59.6,138.43,72.55,138.43,72.55Z"/><path class="cls-6" d="M163.6,83.25l92.34,4.89S194.48,87.53,163.6,83.25Z"/><path class="cls-7" d="M13.16,9.78,102,11.6S24.59,11.69,13.16,9.78Z"/><path class="cls-4" d="M297.52,74.68l77.06-6.3S312.51,75.91,297.52,74.68Z"/></g></g></svg>