<svg xmlns="http://www.w3.org/2000/svg" xmlns:xlink="http://www.w3.org/1999/xlink" viewBox="0 0 3200.71 2114.69"><defs><style>.cls-1{fill:none;}.cls-2{clip-path:url(#clip-path);}.cls-3{fill:#5a5448;}.cls-4{fill:#97877a;}.cls-5{fill:#443f35;}.cls-6{fill:#6d675d;}.cls-7{fill:#bababa;}.cls-8{fill:#26231e;}</style><clipPath id="clip-path"><rect class="cls-1" x="176.14" y="35.87" width="2800" height="2000"/></clipPath></defs><title>Asset 14</title><g id="Layer_2" data-name="Layer 2"><g id="Layer_1-2" data-name="Layer 1"><g class="cls-2"><polygon class="cls-3" points="440.14 126.83 0 123.86 4.34 25.65 415.84 28.45 440.14 126.83"/><polygon class="cls-4" points="428.56 116.55 7.9 113.66 16.51 30.86 406.04 45.69 428.56 116.55"/><polygon class="cls-5" points="428.56 116.55 440.14 126.83 0 123.86 7.9 113.66 428.56 116.55"/><polygon class="cls-6" points="406.04 45.69 415.84 28.45 4.34 25.65 16.51 30.86 406.04 45.69"/><polygon class="cls-5" points="412.55 64.41 376.73 56.81 411.09 61.59 412.63 53.17 412.55 64.41"/><path class="cls-5" d="M14.77,101.38l125.16,6.69S55.28,106.53,14.77,101.38Z"/><polygon class="cls-5" points="7.07 41 14.6 49.17 23.88 49.24 14.33 51.84 7.07 41"/><path class="cls-5" d="M339.7,33.06l-104.22-.71S329.28,38.11,339.7,33.06Z"/><polygon class="cls-7" points="15.51 40.44 16.51 30.86 127.44 35.08 17.5 33.12 15.51 40.44"/><polygon class="cls-7" points="423.89 101.85 428.56 116.55 348.21 116.01 426.72 114.67 423.89 101.85"/><path class="cls-5" d="M315.83,108.45l32.43.22S327.49,110.42,315.83,108.45Z"/><polygon class="cls-3" points="930.88 132.88 461.65 129.72 466.27 25.01 904.98 28 930.88 132.88"/><polygon class="cls-4" points="918.54 121.92 470.07 118.84 479.25 30.56 894.53 46.37 918.54 121.92"/><polygon class="cls-5" points="918.54 121.92 930.88 132.88 461.65 129.72 470.07 118.84 918.54 121.92"/><polygon class="cls-6" points="894.53 46.37 904.98 28 466.27 25.01 479.25 30.56 894.53 46.37"/><polygon class="cls-5" points="901.47 66.33 863.28 58.23 899.92 63.33 901.56 54.34 901.47 66.33"/><path class="cls-5" d="M477.4,105.75l133.43,7.13S520.58,111.23,477.4,105.75Z"/><polygon class="cls-5" points="469.19 41.38 477.22 50.09 487.11 50.16 476.92 52.93 469.19 41.38"/><path class="cls-5" d="M823.8,32.91l-111.1-.76S812.7,38.29,823.8,32.91Z"/><polygon class="cls-7" points="478.19 40.78 479.25 30.56 597.51 35.06 480.31 32.97 478.19 40.78"/><polygon class="cls-7" points="913.56 106.25 918.54 121.92 832.88 121.34 916.58 119.92 913.56 106.25"/><path class="cls-5" d="M798.36,113.28l34.58.24S810.79,115.38,798.36,113.28Z"/><polygon class="cls-3" points="698.98 287.95 210.75 254.48 190.98 162.1 687.91 167.41 698.98 287.95"/><polygon class="cls-4" points="686.08 276.5 219.55 243.12 206.46 173.77 676.98 186.6 686.08 276.5"/><polygon class="cls-5" points="686.08 276.5 698.98 287.95 210.75 254.48 219.55 243.12 686.08 276.5"/><polygon class="cls-6" points="676.98 186.6 687.91 167.41 190.98 162.1 206.46 173.77 676.98 186.6"/><polygon class="cls-5" points="681.83 234.46 665.68 244.57 682.13 237.44 688.85 239.07 681.83 234.46"/><polygon class="cls-5" points="197.67 177.78 210 192.53 217.91 190.2 210.51 195.24 197.67 177.78"/><path class="cls-5" d="M291.88,173.39l191.29,1.3S326.68,171.62,291.88,173.39Z"/><path class="cls-5" d="M516.41,175.88l140.23-.9S565.57,170.87,516.41,175.88Z"/><path class="cls-5" d="M240.4,231.46C239,232.87,354,249,354,249Z"/><path class="cls-8" d="M383.67,261.8l109.1,6.53S420.14,267.11,383.67,261.8Z"/><path class="cls-7" d="M206.46,173.77l105,2.86S220,176.11,206.46,173.77Z"/><path class="cls-5" d="M542,252.76l91.12-6.83S559.72,254.33,542,252.76Z"/><polygon class="cls-3" points="1195.77 161.12 755.63 164.08 759.96 262.29 1171.47 259.49 1195.77 161.12"/><polygon class="cls-4" points="1184.19 171.39 763.53 174.28 772.13 257.09 1161.66 242.26 1184.19 171.39"/><polygon class="cls-5" points="1184.19 171.39 1195.77 161.12 755.63 164.08 763.53 174.28 1184.19 171.39"/><polygon class="cls-6" points="1161.66 242.26 1171.47 259.49 759.96 262.29 772.13 257.09 1161.66 242.26"/><polygon class="cls-5" points="1168.18 223.54 1132.36 231.13 1166.72 226.35 1168.26 234.78 1168.18 223.54"/><path class="cls-5" d="M770.4,186.56l125.15-6.69S810.91,181.42,770.4,186.56Z"/><polygon class="cls-5" points="762.7 246.94 770.23 238.77 779.51 238.71 769.95 236.11 762.7 246.94"/><path class="cls-5" d="M1095.32,254.89l-104.21.71S1084.91,249.84,1095.32,254.89Z"/><polygon class="cls-7" points="771.14 247.5 772.13 257.09 883.06 252.87 773.13 254.83 771.14 247.5"/><polygon class="cls-7" points="1179.52 186.09 1184.19 171.39 1103.84 171.94 1182.35 173.27 1179.52 186.09"/><path class="cls-5" d="M1071.46,179.49l32.43-.22S1083.12,177.53,1071.46,179.49Z"/><polygon class="cls-3" points="1686.51 155.07 1217.28 158.23 1221.9 262.93 1660.61 259.95 1686.51 155.07"/><polygon class="cls-4" points="1674.17 166.03 1225.7 169.11 1234.87 257.38 1650.15 241.58 1674.17 166.03"/><polygon class="cls-5" points="1674.17 166.03 1686.51 155.07 1217.28 158.23 1225.7 169.11 1674.17 166.03"/><polygon class="cls-6" points="1650.15 241.58 1660.61 259.95 1221.9 262.93 1234.87 257.38 1650.15 241.58"/><polygon class="cls-5" points="1657.1 221.62 1618.91 229.71 1655.55 224.62 1657.18 233.6 1657.1 221.62"/><path class="cls-5" d="M1233,182.2l133.43-7.14S1276.21,176.72,1233,182.2Z"/><polygon class="cls-5" points="1224.82 246.57 1232.85 237.86 1242.74 237.79 1232.55 235.02 1224.82 246.57"/><path class="cls-5" d="M1579.43,255l-111.1.76S1568.33,249.66,1579.43,255Z"/><polygon class="cls-7" points="1233.81 247.17 1234.87 257.38 1353.14 252.88 1235.94 254.97 1233.81 247.17"/><polygon class="cls-7" points="1669.19 181.7 1674.17 166.03 1588.51 166.61 1672.2 168.03 1669.19 181.7"/><path class="cls-5" d="M1554,174.66l34.58-.23S1566.42,172.57,1554,174.66Z"/><polygon class="cls-3" points="1454.6 0 966.38 33.46 946.61 125.85 1443.54 120.54 1454.6 0"/><polygon class="cls-4" points="1441.71 11.45 975.18 44.83 962.09 114.18 1432.61 101.34 1441.71 11.45"/><polygon class="cls-5" points="1441.71 11.45 1454.6 0 966.38 33.46 975.18 44.83 1441.71 11.45"/><polygon class="cls-6" points="1432.61 101.34 1443.54 120.54 946.61 125.85 962.09 114.18 1432.61 101.34"/><polygon class="cls-5" points="1437.45 53.49 1421.31 43.38 1437.75 50.51 1444.47 48.88 1437.45 53.49"/><polygon class="cls-5" points="953.3 110.17 965.63 95.42 973.54 97.74 966.14 92.71 953.3 110.17"/><path class="cls-5" d="M1047.5,114.56l191.29-1.3S1082.31,116.33,1047.5,114.56Z"/><path class="cls-5" d="M1272,112.07l140.23.9S1321.2,117.08,1272,112.07Z"/><path class="cls-5" d="M996,56.49c-1.45-1.41,113.6-17.5,113.6-17.5Z"/><path class="cls-8" d="M1139.3,26.14l109.1-6.52S1175.76,20.84,1139.3,26.14Z"/><path class="cls-7" d="M962.09,114.18l105-2.87S975.57,111.84,962.09,114.18Z"/><path class="cls-5" d="M1297.65,35.19,1388.77,42S1315.35,33.62,1297.65,35.19Z"/><polygon class="cls-3" points="1954.34 126.83 1514.2 123.86 1518.54 25.65 1930.04 28.45 1954.34 126.83"/><polygon class="cls-4" points="1942.76 116.55 1522.1 113.66 1530.71 30.86 1920.24 45.69 1942.76 116.55"/><polygon class="cls-5" points="1942.76 116.55 1954.34 126.83 1514.2 123.86 1522.1 113.66 1942.76 116.55"/><polygon class="cls-6" points="1920.24 45.69 1930.04 28.45 1518.54 25.65 1530.71 30.86 1920.24 45.69"/><polygon class="cls-5" points="1926.75 64.41 1890.93 56.81 1925.29 61.59 1926.83 53.17 1926.75 64.41"/><path class="cls-5" d="M1529,101.38l125.16,6.69S1569.48,106.53,1529,101.38Z"/><polygon class="cls-5" points="1521.27 41 1528.8 49.17 1538.08 49.24 1528.53 51.84 1521.27 41"/><path class="cls-5" d="M1853.9,33.06l-104.22-.71S1843.48,38.11,1853.9,33.06Z"/><polygon class="cls-7" points="1529.71 40.44 1530.71 30.86 1641.64 35.08 1531.7 33.12 1529.71 40.44"/><polygon class="cls-7" points="1938.09 101.85 1942.76 116.55 1862.41 116.01 1940.92 114.67 1938.09 101.85"/><path class="cls-5" d="M1830,108.45l32.44.22S1841.7,110.42,1830,108.45Z"/><polygon class="cls-3" points="2445.09 132.88 1975.85 129.72 1980.47 25.01 2419.18 28 2445.09 132.88"/><polygon class="cls-4" points="2432.74 121.92 1984.27 118.84 1993.45 30.56 2408.73 46.37 2432.74 121.92"/><polygon class="cls-5" points="2432.74 121.92 2445.09 132.88 1975.85 129.72 1984.27 118.84 2432.74 121.92"/><polygon class="cls-6" points="2408.73 46.37 2419.18 28 1980.47 25.01 1993.45 30.56 2408.73 46.37"/><polygon class="cls-5" points="2415.68 66.33 2377.48 58.23 2414.12 63.33 2415.76 54.34 2415.68 66.33"/><path class="cls-5" d="M1991.6,105.75,2125,112.88S2034.78,111.23,1991.6,105.75Z"/><polygon class="cls-5" points="1983.39 41.38 1991.42 50.09 2001.31 50.16 1991.12 52.93 1983.39 41.38"/><path class="cls-5" d="M2338,32.91l-111.1-.76S2326.9,38.29,2338,32.91Z"/><polygon class="cls-7" points="1992.39 40.78 1993.45 30.56 2111.71 35.06 1994.51 32.97 1992.39 40.78"/><polygon class="cls-7" points="2427.76 106.25 2432.74 121.92 2347.09 121.34 2430.78 119.92 2427.76 106.25"/><path class="cls-5" d="M2312.56,113.28l34.58.24S2325,115.38,2312.56,113.28Z"/><polygon class="cls-3" points="2213.18 287.95 1724.95 254.48 1705.18 162.1 2202.11 167.41 2213.18 287.95"/><polygon class="cls-4" points="2200.28 276.5 1733.75 243.12 1720.66 173.77 2191.18 186.6 2200.28 276.5"/><polygon class="cls-5" points="2200.28 276.5 2213.18 287.95 1724.95 254.48 1733.75 243.12 2200.28 276.5"/><polygon class="cls-6" points="2191.18 186.6 2202.11 167.41 1705.18 162.1 1720.66 173.77 2191.18 186.6"/><polygon class="cls-5" points="2196.03 234.46 2179.88 244.57 2196.33 237.44 2203.05 239.07 2196.03 234.46"/><polygon class="cls-5" points="1711.88 177.78 1724.2 192.53 1732.12 190.2 1724.72 195.24 1711.88 177.78"/><path class="cls-5" d="M1806.08,173.39l191.29,1.3S1840.88,171.62,1806.08,173.39Z"/><path class="cls-5" d="M2030.61,175.88l140.23-.9S2079.77,170.87,2030.61,175.88Z"/><path class="cls-5" d="M1754.6,231.46c-1.45,1.41,113.6,17.5,113.6,17.5Z"/><path class="cls-8" d="M1897.87,261.8l109.1,6.53S1934.34,267.11,1897.87,261.8Z"/><path class="cls-7" d="M1720.66,173.77l105,2.86S1734.15,176.11,1720.66,173.77Z"/><path class="cls-5" d="M2056.23,252.76l91.12-6.83S2073.92,254.33,2056.23,252.76Z"/><polygon class="cls-3" points="2709.97 161.12 2269.83 164.08 2274.16 262.29 2685.67 259.49 2709.97 161.12"/><polygon class="cls-4" points="2698.39 171.39 2277.73 174.28 2286.33 257.09 2675.86 242.26 2698.39 171.39"/><polygon class="cls-5" points="2698.39 171.39 2709.97 161.12 2269.83 164.08 2277.73 174.28 2698.39 171.39"/><polygon class="cls-6" points="2675.86 242.26 2685.67 259.49 2274.16 262.29 2286.33 257.09 2675.86 242.26"/><polygon class="cls-5" points="2682.38 223.54 2646.56 231.13 2680.92 226.35 2682.45 234.78 2682.38 223.54"/><path class="cls-5" d="M2284.6,186.56l125.15-6.69S2325.11,181.42,2284.6,186.56Z"/><polygon class="cls-5" points="2276.9 246.94 2284.43 238.77 2293.71 238.71 2284.15 236.11 2276.9 246.94"/><path class="cls-5" d="M2609.52,254.89l-104.21.71S2599.11,249.84,2609.52,254.89Z"/><polygon class="cls-7" points="2285.34 247.5 2286.33 257.09 2397.26 252.87 2287.33 254.83 2285.34 247.5"/><polygon class="cls-7" points="2693.72 186.09 2698.39 171.39 2618.04 171.94 2696.55 173.27 2693.72 186.09"/><path class="cls-5" d="M2585.66,179.49l32.43-.22S2597.32,177.53,2585.66,179.49Z"/><polygon class="cls-3" points="3200.71 155.07 2731.48 158.23 2736.1 262.93 3174.81 259.95 3200.71 155.07"/><polygon class="cls-4" points="3188.37 166.03 2739.9 169.11 2749.07 257.38 3164.36 241.58 3188.37 166.03"/><polygon class="cls-5" points="3188.37 166.03 3200.71 155.07 2731.48 158.23 2739.9 169.11 3188.37 166.03"/><polygon class="cls-6" points="3164.36 241.58 3174.81 259.95 2736.1 262.93 2749.07 257.38 3164.36 241.58"/><polygon class="cls-5" points="3171.3 221.62 3133.11 229.71 3169.75 224.62 3171.38 233.6 3171.3 221.62"/><path class="cls-5" d="M2747.22,182.2l133.43-7.14S2790.41,176.72,2747.22,182.2Z"/><polygon class="cls-5" points="2739.02 246.57 2747.05 237.86 2756.94 237.79 2746.75 235.02 2739.02 246.57"/><path class="cls-5" d="M3093.63,255l-111.1.76S3082.53,249.66,3093.63,255Z"/><polygon class="cls-7" points="2748.01 247.17 2749.07 257.38 2867.34 252.88 2750.14 254.97 2748.01 247.17"/><polygon class="cls-7" points="3183.39 181.7 3188.37 166.03 3102.71 166.61 3186.41 168.03 3183.39 181.7"/><path class="cls-5" d="M3068.19,174.66l34.58-.23S3080.62,172.57,3068.19,174.66Z"/><polygon class="cls-3" points="2968.8 0 2480.58 33.46 2460.81 125.85 2957.74 120.54 2968.8 0"/><polygon class="cls-4" points="2955.91 11.45 2489.38 44.83 2476.29 114.18 2946.81 101.34 2955.91 11.45"/><polygon class="cls-5" points="2955.91 11.45 2968.8 0 2480.58 33.46 2489.38 44.83 2955.91 11.45"/><polygon class="cls-6" points="2946.81 101.34 2957.74 120.54 2460.81 125.85 2476.29 114.18 2946.81 101.34"/><polygon class="cls-5" points="2951.65 53.49 2935.51 43.38 2951.95 50.51 2958.67 48.88 2951.65 53.49"/><polygon class="cls-5" points="2467.5 110.17 2479.83 95.42 2487.74 97.74 2480.34 92.71 2467.5 110.17"/><path class="cls-5" d="M2561.7,114.56l191.29-1.3S2596.51,116.33,2561.7,114.56Z"/><path class="cls-5" d="M2786.23,112.07l140.23.9S2835.4,117.08,2786.23,112.07Z"/><path class="cls-5" d="M2510.23,56.49c-1.46-1.41,113.6-17.5,113.6-17.5Z"/><path class="cls-8" d="M2653.5,26.14l109.1-6.52S2690,20.84,2653.5,26.14Z"/><path class="cls-7" d="M2476.29,114.18l105-2.87S2489.77,111.84,2476.29,114.18Z"/><path class="cls-5" d="M2811.85,35.19,2903,42S2829.55,33.62,2811.85,35.19Z"/><polygon class="cls-3" points="440.14 431.29 0 428.32 4.34 330.11 415.84 332.91 440.14 431.29"/><polygon class="cls-4" points="428.56 421.01 7.9 418.12 16.51 335.32 406.04 350.14 428.56 421.01"/><polygon class="cls-5" points="428.56 421.01 440.14 431.29 0 428.32 7.9 418.12 428.56 421.01"/><polygon class="cls-6" points="406.04 350.14 415.84 332.91 4.34 330.11 16.51 335.32 406.04 350.14"/><polygon class="cls-5" points="412.55 368.87 376.73 361.27 411.09 366.05 412.63 357.62 412.55 368.87"/><path class="cls-5" d="M14.77,405.84l125.16,6.69S55.28,411,14.77,405.84Z"/><polygon class="cls-5" points="7.07 345.46 14.6 353.63 23.88 353.69 14.33 356.29 7.07 345.46"/><path class="cls-5" d="M339.7,337.51l-104.22-.7S329.28,342.57,339.7,337.51Z"/><polygon class="cls-7" points="15.51 344.9 16.51 335.32 127.44 339.54 17.5 337.58 15.51 344.9"/><polygon class="cls-7" points="423.89 406.31 428.56 421.01 348.21 420.46 426.72 419.13 423.89 406.31"/><path class="cls-5" d="M315.83,412.91l32.43.22S327.49,414.88,315.83,412.91Z"/><polygon class="cls-3" points="930.88 437.33 461.65 434.17 466.27 329.47 904.98 332.45 930.88 437.33"/><polygon class="cls-4" points="918.54 426.38 470.07 423.3 479.25 335.02 894.53 350.83 918.54 426.38"/><polygon class="cls-5" points="918.54 426.38 930.88 437.33 461.65 434.17 470.07 423.3 918.54 426.38"/><polygon class="cls-6" points="894.53 350.83 904.98 332.45 466.27 329.47 479.25 335.02 894.53 350.83"/><polygon class="cls-5" points="901.47 370.79 863.28 362.69 899.92 367.79 901.56 358.8 901.47 370.79"/><path class="cls-5" d="M477.4,410.21l133.43,7.13S520.58,415.69,477.4,410.21Z"/><polygon class="cls-5" points="469.19 345.83 477.22 354.55 487.11 354.61 476.92 357.38 469.19 345.83"/><path class="cls-5" d="M823.8,337.36l-111.1-.75S812.7,342.75,823.8,337.36Z"/><polygon class="cls-7" points="478.19 345.24 479.25 335.02 597.51 339.52 480.31 337.43 478.19 345.24"/><polygon class="cls-7" points="913.56 410.71 918.54 426.38 832.88 425.8 916.58 424.38 913.56 410.71"/><path class="cls-5" d="M798.36,417.74l34.58.24S810.79,419.84,798.36,417.74Z"/><polygon class="cls-3" points="698.98 592.4 210.75 558.94 190.98 466.56 687.91 471.86 698.98 592.4"/><polygon class="cls-4" points="686.08 580.96 219.55 547.57 206.46 478.23 676.98 491.06 686.08 580.96"/><polygon class="cls-5" points="686.08 580.96 698.98 592.4 210.75 558.94 219.55 547.57 686.08 580.96"/><polygon class="cls-6" points="676.98 491.06 687.91 471.86 190.98 466.56 206.46 478.23 676.98 491.06"/><polygon class="cls-5" points="681.83 538.92 665.68 549.02 682.13 541.89 688.85 543.53 681.83 538.92"/><polygon class="cls-5" points="197.67 482.24 210 496.98 217.91 494.66 210.51 499.7 197.67 482.24"/><path class="cls-5" d="M291.88,477.84l191.29,1.3S326.68,476.08,291.88,477.84Z"/><path class="cls-5" d="M516.41,480.33l140.23-.89S565.57,475.33,516.41,480.33Z"/><path class="cls-5" d="M240.4,535.92C239,537.33,354,553.42,354,553.42Z"/><path class="cls-8" d="M383.67,566.26l109.1,6.52S420.14,571.57,383.67,566.26Z"/><path class="cls-7" d="M206.46,478.23l105,2.86S220,480.57,206.46,478.23Z"/><path class="cls-5" d="M542,557.22l91.12-6.83S559.72,558.78,542,557.22Z"/><polygon class="cls-3" points="1195.77 465.58 755.63 468.54 759.96 566.75 1171.47 563.95 1195.77 465.58"/><polygon class="cls-4" points="1184.19 475.85 763.53 478.74 772.13 561.55 1161.66 546.72 1184.19 475.85"/><polygon class="cls-5" points="1184.19 475.85 1195.77 465.58 755.63 468.54 763.53 478.74 1184.19 475.85"/><polygon class="cls-6" points="1161.66 546.72 1171.47 563.95 759.96 566.75 772.13 561.55 1161.66 546.72"/><polygon class="cls-5" points="1168.18 527.99 1132.36 535.59 1166.72 530.81 1168.26 539.24 1168.18 527.99"/><path class="cls-5" d="M770.4,491l125.15-6.69S810.91,485.88,770.4,491Z"/><polygon class="cls-5" points="762.7 551.4 770.23 543.23 779.51 543.17 769.95 540.57 762.7 551.4"/><path class="cls-5" d="M1095.32,559.35l-104.21.71S1084.91,554.3,1095.32,559.35Z"/><polygon class="cls-7" points="771.14 551.96 772.13 561.55 883.06 557.32 773.13 559.28 771.14 551.96"/><polygon class="cls-7" points="1179.52 490.55 1184.19 475.85 1103.84 476.4 1182.35 477.73 1179.52 490.55"/><path class="cls-5" d="M1071.46,484l32.43-.22S1083.12,482,1071.46,484Z"/><polygon class="cls-3" points="1686.51 459.53 1217.28 462.69 1221.9 567.39 1660.61 564.41 1686.51 459.53"/><polygon class="cls-4" points="1674.17 470.48 1225.7 473.56 1234.87 561.84 1650.15 546.04 1674.17 470.48"/><polygon class="cls-5" points="1674.17 470.48 1686.51 459.53 1217.28 462.69 1225.7 473.56 1674.17 470.48"/><polygon class="cls-6" points="1650.15 546.04 1660.61 564.41 1221.9 567.39 1234.87 561.84 1650.15 546.04"/><polygon class="cls-5" points="1657.1 526.07 1618.91 534.17 1655.55 529.08 1657.18 538.06 1657.1 526.07"/><path class="cls-5" d="M1233,486.66l133.43-7.14S1276.21,481.17,1233,486.66Z"/><polygon class="cls-5" points="1224.82 551.03 1232.85 542.32 1242.74 542.25 1232.55 539.48 1224.82 551.03"/><path class="cls-5" d="M1579.43,559.5l-111.1.75S1568.33,554.12,1579.43,559.5Z"/><polygon class="cls-7" points="1233.81 551.63 1234.87 561.84 1353.14 557.34 1235.94 559.43 1233.81 551.63"/><polygon class="cls-7" points="1669.19 486.15 1674.17 470.48 1588.51 471.07 1672.2 472.49 1669.19 486.15"/><path class="cls-5" d="M1554,479.12l34.58-.24S1566.42,477,1554,479.12Z"/><polygon class="cls-3" points="1454.6 304.46 966.38 337.92 946.61 430.31 1443.54 425 1454.6 304.46"/><polygon class="cls-4" points="1441.71 315.91 975.18 349.29 962.09 418.64 1432.61 405.8 1441.71 315.91"/><polygon class="cls-5" points="1441.71 315.91 1454.6 304.46 966.38 337.92 975.18 349.29 1441.71 315.91"/><polygon class="cls-6" points="1432.61 405.8 1443.54 425 946.61 430.31 962.09 418.64 1432.61 405.8"/><polygon class="cls-5" points="1437.45 357.94 1421.31 347.84 1437.75 354.97 1444.47 353.33 1437.45 357.94"/><polygon class="cls-5" points="953.3 414.63 965.63 399.88 973.54 402.2 966.14 397.17 953.3 414.63"/><path class="cls-5" d="M1047.5,419l191.29-1.3S1082.31,420.78,1047.5,419Z"/><path class="cls-5" d="M1272,416.53l140.23.9S1321.2,421.54,1272,416.53Z"/><path class="cls-5" d="M996,361c-1.45-1.42,113.6-17.51,113.6-17.51Z"/><path class="cls-8" d="M1139.3,330.6l109.1-6.52S1175.76,325.29,1139.3,330.6Z"/><path class="cls-7" d="M962.09,418.64l105-2.87S975.57,416.3,962.09,418.64Z"/><path class="cls-5" d="M1297.65,339.64l91.12,6.84S1315.35,338.08,1297.65,339.64Z"/><polygon class="cls-3" points="1954.34 431.29 1514.2 428.32 1518.54 330.11 1930.04 332.91 1954.34 431.29"/><polygon class="cls-4" points="1942.76 421.01 1522.1 418.12 1530.71 335.32 1920.24 350.14 1942.76 421.01"/><polygon class="cls-5" points="1942.76 421.01 1954.34 431.29 1514.2 428.32 1522.1 418.12 1942.76 421.01"/><polygon class="cls-6" points="1920.24 350.14 1930.04 332.91 1518.54 330.11 1530.71 335.32 1920.24 350.14"/><polygon class="cls-5" points="1926.75 368.87 1890.93 361.27 1925.29 366.05 1926.83 357.62 1926.75 368.87"/><path class="cls-5" d="M1529,405.84l125.16,6.69S1569.48,411,1529,405.84Z"/><polygon class="cls-5" points="1521.27 345.46 1528.8 353.63 1538.08 353.69 1528.53 356.29 1521.27 345.46"/><path class="cls-5" d="M1853.9,337.51l-104.22-.7S1843.48,342.57,1853.9,337.51Z"/><polygon class="cls-7" points="1529.71 344.9 1530.71 335.32 1641.64 339.54 1531.7 337.58 1529.71 344.9"/><polygon class="cls-7" points="1938.09 406.31 1942.76 421.01 1862.41 420.46 1940.92 419.13 1938.09 406.31"/><path class="cls-5" d="M1830,412.91l32.44.22S1841.7,414.88,1830,412.91Z"/><polygon class="cls-3" points="2445.09 437.33 1975.85 434.17 1980.47 329.47 2419.18 332.45 2445.09 437.33"/><polygon class="cls-4" points="2432.74 426.38 1984.27 423.3 1993.45 335.02 2408.73 350.83 2432.74 426.38"/><polygon class="cls-5" points="2432.74 426.38 2445.09 437.33 1975.85 434.17 1984.27 423.3 2432.74 426.38"/><polygon class="cls-6" points="2408.73 350.83 2419.18 332.45 1980.47 329.47 1993.45 335.02 2408.73 350.83"/><polygon class="cls-5" points="2415.68 370.79 2377.48 362.69 2414.12 367.79 2415.76 358.8 2415.68 370.79"/><path class="cls-5" d="M1991.6,410.21,2125,417.34S2034.78,415.69,1991.6,410.21Z"/><polygon class="cls-5" points="1983.39 345.83 1991.42 354.55 2001.31 354.61 1991.12 357.38 1983.39 345.83"/><path class="cls-5" d="M2338,337.36l-111.1-.75S2326.9,342.75,2338,337.36Z"/><polygon class="cls-7" points="1992.39 345.24 1993.45 335.02 2111.71 339.52 1994.51 337.43 1992.39 345.24"/><polygon class="cls-7" points="2427.76 410.71 2432.74 426.38 2347.09 425.8 2430.78 424.38 2427.76 410.71"/><path class="cls-5" d="M2312.56,417.74l34.58.24S2325,419.84,2312.56,417.74Z"/><polygon class="cls-3" points="2213.18 592.4 1724.95 558.94 1705.18 466.56 2202.11 471.86 2213.18 592.4"/><polygon class="cls-4" points="2200.28 580.96 1733.75 547.57 1720.66 478.23 2191.18 491.06 2200.28 580.96"/><polygon class="cls-5" points="2200.28 580.96 2213.18 592.4 1724.95 558.94 1733.75 547.57 2200.28 580.96"/><polygon class="cls-6" points="2191.18 491.06 2202.11 471.86 1705.18 466.56 1720.66 478.23 2191.18 491.06"/><polygon class="cls-5" points="2196.03 538.92 2179.88 549.02 2196.33 541.89 2203.05 543.53 2196.03 538.92"/><polygon class="cls-5" points="1711.88 482.24 1724.2 496.98 1732.12 494.66 1724.72 499.7 1711.88 482.24"/><path class="cls-5" d="M1806.08,477.84l191.29,1.3S1840.88,476.08,1806.08,477.84Z"/><path class="cls-5" d="M2030.61,480.33l140.23-.89S2079.77,475.33,2030.61,480.33Z"/><path class="cls-5" d="M1754.6,535.92c-1.45,1.41,113.6,17.5,113.6,17.5Z"/><path class="cls-8" d="M1897.87,566.26l109.1,6.52S1934.34,571.57,1897.87,566.26Z"/><path class="cls-7" d="M1720.66,478.23l105,2.86S1734.15,480.57,1720.66,478.23Z"/><path class="cls-5" d="M2056.23,557.22l91.12-6.83S2073.92,558.78,2056.23,557.22Z"/><polygon class="cls-3" points="2709.97 465.58 2269.83 468.54 2274.16 566.75 2685.67 563.95 2709.97 465.58"/><polygon class="cls-4" points="2698.39 475.85 2277.73 478.74 2286.33 561.55 2675.86 546.72 2698.39 475.85"/><polygon class="cls-5" points="2698.39 475.85 2709.97 465.58 2269.83 468.54 2277.73 478.74 2698.39 475.85"/><polygon class="cls-6" points="2675.86 546.72 2685.67 563.95 2274.16 566.75 2286.33 561.55 2675.86 546.72"/><polygon class="cls-5" points="2682.38 527.99 2646.56 535.59 2680.92 530.81 2682.45 539.24 2682.38 527.99"/><path class="cls-5" d="M2284.6,491l125.15-6.69S2325.11,485.88,2284.6,491Z"/><polygon class="cls-5" points="2276.9 551.4 2284.43 543.23 2293.71 543.17 2284.15 540.57 2276.9 551.4"/><path class="cls-5" d="M2609.52,559.35l-104.21.71S2599.11,554.3,2609.52,559.35Z"/><polygon class="cls-7" points="2285.34 551.96 2286.33 561.55 2397.26 557.32 2287.33 559.28 2285.34 551.96"/><polygon class="cls-7" points="2693.72 490.55 2698.39 475.85 2618.04 476.4 2696.55 477.73 2693.72 490.55"/><path class="cls-5" d="M2585.66,484l32.43-.22S2597.32,482,2585.66,484Z"/><polygon class="cls-3" points="3200.71 459.53 2731.48 462.69 2736.1 567.39 3174.81 564.41 3200.71 459.53"/><polygon class="cls-4" points="3188.37 470.48 2739.9 473.56 2749.07 561.84 3164.36 546.04 3188.37 470.48"/><polygon class="cls-5" points="3188.37 470.48 3200.71 459.53 2731.48 462.69 2739.9 473.56 3188.37 470.48"/><polygon class="cls-6" points="3164.36 546.04 3174.81 564.41 2736.1 567.39 2749.07 561.84 3164.36 546.04"/><polygon class="cls-5" points="3171.3 526.07 3133.11 534.17 3169.75 529.08 3171.38 538.06 3171.3 526.07"/><path class="cls-5" d="M2747.22,486.66l133.43-7.14S2790.41,481.17,2747.22,486.66Z"/><polygon class="cls-5" points="2739.02 551.03 2747.05 542.32 2756.94 542.25 2746.75 539.48 2739.02 551.03"/><path class="cls-5" d="M3093.63,559.5l-111.1.75S3082.53,554.12,3093.63,559.5Z"/><polygon class="cls-7" points="2748.01 551.63 2749.07 561.84 2867.34 557.34 2750.14 559.43 2748.01 551.63"/><polygon class="cls-7" points="3183.39 486.15 3188.37 470.48 3102.71 471.07 3186.41 472.49 3183.39 486.15"/><path class="cls-5" d="M3068.19,479.12l34.58-.24S3080.62,477,3068.19,479.12Z"/><polygon class="cls-3" points="2968.8 304.46 2480.58 337.92 2460.81 430.31 2957.74 425 2968.8 304.46"/><polygon class="cls-4" points="2955.91 315.91 2489.38 349.29 2476.29 418.64 2946.81 405.8 2955.91 315.91"/><polygon class="cls-5" points="2955.91 315.91 2968.8 304.46 2480.58 337.92 2489.38 349.29 2955.91 315.91"/><polygon class="cls-6" points="2946.81 405.8 2957.74 425 2460.81 430.31 2476.29 418.64 2946.81 405.8"/><polygon class="cls-5" points="2951.65 357.94 2935.51 347.84 2951.95 354.97 2958.67 353.33 2951.65 357.94"/><polygon class="cls-5" points="2467.5 414.63 2479.83 399.88 2487.74 402.2 2480.34 397.17 2467.5 414.63"/><path class="cls-5" d="M2561.7,419l191.29-1.3S2596.51,420.78,2561.7,419Z"/><path class="cls-5" d="M2786.23,416.53l140.23.9S2835.4,421.54,2786.23,416.53Z"/><path class="cls-5" d="M2510.23,361c-1.46-1.42,113.6-17.51,113.6-17.51Z"/><path class="cls-8" d="M2653.5,330.6l109.1-6.52S2690,325.29,2653.5,330.6Z"/><path class="cls-7" d="M2476.29,418.64l105-2.87S2489.77,416.3,2476.29,418.64Z"/><path class="cls-5" d="M2811.85,339.64l91.12,6.84S2829.55,338.08,2811.85,339.64Z"/><polygon class="cls-3" points="440.14 735.74 0 732.78 4.34 634.57 415.84 637.37 440.14 735.74"/><polygon class="cls-4" points="428.56 725.47 7.9 722.58 16.51 639.77 406.04 654.6 428.56 725.47"/><polygon class="cls-5" points="428.56 725.47 440.14 735.74 0 732.78 7.9 722.58 428.56 725.47"/><polygon class="cls-6" points="406.04 654.6 415.84 637.37 4.34 634.57 16.51 639.77 406.04 654.6"/><polygon class="cls-5" points="412.55 673.33 376.73 665.73 411.09 670.51 412.63 662.08 412.55 673.33"/><path class="cls-5" d="M14.77,710.3,139.93,717S55.28,715.44,14.77,710.3Z"/><polygon class="cls-5" points="7.07 649.92 14.6 658.09 23.88 658.15 14.33 660.75 7.07 649.92"/><path class="cls-5" d="M339.7,642l-104.22-.71S329.28,647,339.7,642Z"/><polygon class="cls-7" points="15.51 649.36 16.51 639.77 127.44 644 17.5 642.04 15.51 649.36"/><polygon class="cls-7" points="423.89 710.77 428.56 725.47 348.21 724.92 426.72 723.59 423.89 710.77"/><path class="cls-5" d="M315.83,717.37l32.43.22S327.49,719.33,315.83,717.37Z"/><polygon class="cls-3" points="930.88 741.79 461.65 738.63 466.27 633.93 904.98 636.91 930.88 741.79"/><polygon class="cls-4" points="918.54 730.84 470.07 727.75 479.25 639.48 894.53 655.28 918.54 730.84"/><polygon class="cls-5" points="918.54 730.84 930.88 741.79 461.65 738.63 470.07 727.75 918.54 730.84"/><polygon class="cls-6" points="894.53 655.28 904.98 636.91 466.27 633.93 479.25 639.48 894.53 655.28"/><polygon class="cls-5" points="901.47 675.25 863.28 667.15 899.92 672.24 901.56 663.26 901.47 675.25"/><path class="cls-5" d="M477.4,714.66l133.43,7.14S520.58,720.15,477.4,714.66Z"/><polygon class="cls-5" points="469.19 650.29 477.22 659 487.11 659.07 476.92 661.84 469.19 650.29"/><path class="cls-5" d="M823.8,641.82l-111.1-.75S812.7,647.21,823.8,641.82Z"/><polygon class="cls-7" points="478.19 649.7 479.25 639.48 597.51 643.98 480.31 641.89 478.19 649.7"/><polygon class="cls-7" points="913.56 715.17 918.54 730.84 832.88 730.25 916.58 728.83 913.56 715.17"/><path class="cls-5" d="M798.36,722.2l34.58.24S810.79,724.3,798.36,722.2Z"/><polygon class="cls-3" points="698.98 896.86 210.75 863.4 190.98 771.01 687.91 776.32 698.98 896.86"/><polygon class="cls-4" points="686.08 885.41 219.55 852.03 206.46 782.68 676.98 795.52 686.08 885.41"/><polygon class="cls-5" points="686.08 885.41 698.98 896.86 210.75 863.4 219.55 852.03 686.08 885.41"/><polygon class="cls-6" points="676.98 795.52 687.91 776.32 190.98 771.01 206.46 782.68 676.98 795.52"/><polygon class="cls-5" points="681.83 843.38 665.68 853.48 682.13 846.35 688.85 847.99 681.83 843.38"/><polygon class="cls-5" points="197.67 786.69 210 801.44 217.91 799.12 210.51 804.15 197.67 786.69"/><path class="cls-5" d="M291.88,782.3l191.29,1.3S326.68,780.54,291.88,782.3Z"/><path class="cls-5" d="M516.41,784.79l140.23-.9S565.57,779.78,516.41,784.79Z"/><path class="cls-5" d="M240.4,840.37C239,841.79,354,857.88,354,857.88Z"/><path class="cls-8" d="M383.67,870.72l109.1,6.52S420.14,876,383.67,870.72Z"/><path class="cls-7" d="M206.46,782.68l105,2.87S220,785,206.46,782.68Z"/><path class="cls-5" d="M542,861.68l91.12-6.83S559.72,863.24,542,861.68Z"/><polygon class="cls-3" points="1195.77 770.03 755.63 773 759.96 871.21 1171.47 868.41 1195.77 770.03"/><polygon class="cls-4" points="1184.19 780.31 763.53 783.2 772.13 866 1161.66 851.18 1184.19 780.31"/><polygon class="cls-5" points="1184.19 780.31 1195.77 770.03 755.63 773 763.53 783.2 1184.19 780.31"/><polygon class="cls-6" points="1161.66 851.18 1171.47 868.41 759.96 871.21 772.13 866 1161.66 851.18"/><polygon class="cls-5" points="1168.18 832.45 1132.36 840.05 1166.72 835.27 1168.26 843.7 1168.18 832.45"/><path class="cls-5" d="M770.4,795.48l125.15-6.69S810.91,790.34,770.4,795.48Z"/><polygon class="cls-5" points="762.7 855.86 770.23 847.69 779.51 847.63 769.95 845.03 762.7 855.86"/><path class="cls-5" d="M1095.32,863.81l-104.21.7S1084.91,858.76,1095.32,863.81Z"/><polygon class="cls-7" points="771.14 856.42 772.13 866 883.06 861.78 773.13 863.74 771.14 856.42"/><polygon class="cls-7" points="1179.52 795.01 1184.19 780.31 1103.84 780.86 1182.35 782.19 1179.52 795.01"/><path class="cls-5" d="M1071.46,788.41l32.43-.22S1083.12,786.45,1071.46,788.41Z"/><polygon class="cls-3" points="1686.51 763.99 1217.28 767.15 1221.9 871.85 1660.61 868.87 1686.51 763.99"/><polygon class="cls-4" points="1674.17 774.94 1225.7 778.02 1234.87 866.3 1650.15 850.49 1674.17 774.94"/><polygon class="cls-5" points="1674.17 774.94 1686.51 763.99 1217.28 767.15 1225.7 778.02 1674.17 774.94"/><polygon class="cls-6" points="1650.15 850.49 1660.61 868.87 1221.9 871.85 1234.87 866.3 1650.15 850.49"/><polygon class="cls-5" points="1657.1 830.53 1618.91 838.63 1655.55 833.53 1657.18 842.52 1657.1 830.53"/><path class="cls-5" d="M1233,791.11,1366.45,784S1276.21,785.63,1233,791.11Z"/><polygon class="cls-5" points="1224.82 855.49 1232.85 846.77 1242.74 846.71 1232.55 843.94 1224.82 855.49"/><path class="cls-5" d="M1579.43,864l-111.1.75S1568.33,858.57,1579.43,864Z"/><polygon class="cls-7" points="1233.81 856.08 1234.87 866.3 1353.14 861.8 1235.94 863.89 1233.81 856.08"/><polygon class="cls-7" points="1669.19 790.61 1674.17 774.94 1588.51 775.52 1672.2 776.95 1669.19 790.61"/><path class="cls-5" d="M1554,783.58l34.58-.24S1566.42,781.48,1554,783.58Z"/><polygon class="cls-3" points="1454.6 608.92 966.38 642.38 946.61 734.76 1443.54 729.46 1454.6 608.92"/><polygon class="cls-4" points="1441.71 620.37 975.18 653.75 962.09 723.09 1432.61 710.26 1441.71 620.37"/><polygon class="cls-5" points="1441.71 620.37 1454.6 608.92 966.38 642.38 975.18 653.75 1441.71 620.37"/><polygon class="cls-6" points="1432.61 710.26 1443.54 729.46 946.61 734.76 962.09 723.09 1432.61 710.26"/><polygon class="cls-5" points="1437.45 662.4 1421.31 652.3 1437.75 659.43 1444.47 657.79 1437.45 662.4"/><polygon class="cls-5" points="953.3 719.09 965.63 704.34 973.54 706.66 966.14 701.62 953.3 719.09"/><path class="cls-5" d="M1047.5,723.48l191.29-1.3S1082.31,725.24,1047.5,723.48Z"/><path class="cls-5" d="M1272,721l140.23.89S1321.2,726,1272,721Z"/><path class="cls-5" d="M996,665.4c-1.45-1.41,113.6-17.5,113.6-17.5Z"/><path class="cls-8" d="M1139.3,635.06l109.1-6.52S1175.76,629.75,1139.3,635.06Z"/><path class="cls-7" d="M962.09,723.09l105-2.86S975.57,720.76,962.09,723.09Z"/><path class="cls-5" d="M1297.65,644.1l91.12,6.83S1315.35,642.54,1297.65,644.1Z"/><polygon class="cls-3" points="1954.34 735.74 1514.2 732.78 1518.54 634.57 1930.04 637.37 1954.34 735.74"/><polygon class="cls-4" points="1942.76 725.47 1522.1 722.58 1530.71 639.77 1920.24 654.6 1942.76 725.47"/><polygon class="cls-5" points="1942.76 725.47 1954.34 735.74 1514.2 732.78 1522.1 722.58 1942.76 725.47"/><polygon class="cls-6" points="1920.24 654.6 1930.04 637.37 1518.54 634.57 1530.71 639.77 1920.24 654.6"/><polygon class="cls-5" points="1926.75 673.33 1890.93 665.73 1925.29 670.51 1926.83 662.08 1926.75 673.33"/><path class="cls-5" d="M1529,710.3,1654.13,717S1569.48,715.44,1529,710.3Z"/><polygon class="cls-5" points="1521.27 649.92 1528.8 658.09 1538.08 658.15 1528.53 660.75 1521.27 649.92"/><path class="cls-5" d="M1853.9,642l-104.22-.71S1843.48,647,1853.9,642Z"/><polygon class="cls-7" points="1529.71 649.36 1530.71 639.77 1641.64 644 1531.7 642.04 1529.71 649.36"/><polygon class="cls-7" points="1938.09 710.77 1942.76 725.47 1862.41 724.92 1940.92 723.59 1938.09 710.77"/><path class="cls-5" d="M1830,717.37l32.44.22S1841.7,719.33,1830,717.37Z"/><polygon class="cls-3" points="2445.09 741.79 1975.85 738.63 1980.47 633.93 2419.18 636.91 2445.09 741.79"/><polygon class="cls-4" points="2432.74 730.84 1984.27 727.75 1993.45 639.48 2408.73 655.28 2432.74 730.84"/><polygon class="cls-5" points="2432.74 730.84 2445.09 741.79 1975.85 738.63 1984.27 727.75 2432.74 730.84"/><polygon class="cls-6" points="2408.73 655.28 2419.18 636.91 1980.47 633.93 1993.45 639.48 2408.73 655.28"/><polygon class="cls-5" points="2415.68 675.25 2377.48 667.15 2414.12 672.24 2415.76 663.26 2415.68 675.25"/><path class="cls-5" d="M1991.6,714.66,2125,721.8S2034.78,720.15,1991.6,714.66Z"/><polygon class="cls-5" points="1983.39 650.29 1991.42 659 2001.31 659.07 1991.12 661.84 1983.39 650.29"/><path class="cls-5" d="M2338,641.82l-111.1-.75S2326.9,647.21,2338,641.82Z"/><polygon class="cls-7" points="1992.39 649.7 1993.45 639.48 2111.71 643.98 1994.51 641.89 1992.39 649.7"/><polygon class="cls-7" points="2427.76 715.17 2432.74 730.84 2347.09 730.25 2430.78 728.83 2427.76 715.17"/><path class="cls-5" d="M2312.56,722.2l34.58.24S2325,724.3,2312.56,722.2Z"/><polygon class="cls-3" points="2213.18 896.86 1724.95 863.4 1705.18 771.01 2202.11 776.32 2213.18 896.86"/><polygon class="cls-4" points="2200.28 885.41 1733.75 852.03 1720.66 782.68 2191.18 795.52 2200.28 885.41"/><polygon class="cls-5" points="2200.28 885.41 2213.18 896.86 1724.95 863.4 1733.75 852.03 2200.28 885.41"/><polygon class="cls-6" points="2191.18 795.52 2202.11 776.32 1705.18 771.01 1720.66 782.68 2191.18 795.52"/><polygon class="cls-5" points="2196.03 843.38 2179.88 853.48 2196.33 846.35 2203.05 847.99 2196.03 843.38"/><polygon class="cls-5" points="1711.88 786.69 1724.2 801.44 1732.12 799.12 1724.72 804.15 1711.88 786.69"/><path class="cls-5" d="M1806.08,782.3l191.29,1.3S1840.88,780.54,1806.08,782.3Z"/><path class="cls-5" d="M2030.61,784.79l140.23-.9S2079.77,779.78,2030.61,784.79Z"/><path class="cls-5" d="M1754.6,840.37c-1.45,1.42,113.6,17.51,113.6,17.51Z"/><path class="cls-8" d="M1897.87,870.72l109.1,6.52S1934.34,876,1897.87,870.72Z"/><path class="cls-7" d="M1720.66,782.68l105,2.87S1734.15,785,1720.66,782.68Z"/><path class="cls-5" d="M2056.23,861.68l91.12-6.83S2073.92,863.24,2056.23,861.68Z"/><polygon class="cls-3" points="2709.97 770.03 2269.83 773 2274.16 871.21 2685.67 868.41 2709.97 770.03"/><polygon class="cls-4" points="2698.39 780.31 2277.73 783.2 2286.33 866 2675.86 851.18 2698.39 780.31"/><polygon class="cls-5" points="2698.39 780.31 2709.97 770.03 2269.83 773 2277.73 783.2 2698.39 780.31"/><polygon class="cls-6" points="2675.86 851.18 2685.67 868.41 2274.16 871.21 2286.33 866 2675.86 851.18"/><polygon class="cls-5" points="2682.38 832.45 2646.56 840.05 2680.92 835.27 2682.45 843.7 2682.38 832.45"/><path class="cls-5" d="M2284.6,795.48l125.15-6.69S2325.11,790.34,2284.6,795.48Z"/><polygon class="cls-5" points="2276.9 855.86 2284.43 847.69 2293.71 847.63 2284.15 845.03 2276.9 855.86"/><path class="cls-5" d="M2609.52,863.81l-104.21.7S2599.11,858.76,2609.52,863.81Z"/><polygon class="cls-7" points="2285.34 856.42 2286.33 866 2397.26 861.78 2287.33 863.74 2285.34 856.42"/><polygon class="cls-7" points="2693.72 795.01 2698.39 780.31 2618.04 780.86 2696.55 782.19 2693.72 795.01"/><path class="cls-5" d="M2585.66,788.41l32.43-.22S2597.32,786.45,2585.66,788.41Z"/><polygon class="cls-3" points="3200.71 763.99 2731.48 767.15 2736.1 871.85 3174.81 868.87 3200.71 763.99"/><polygon class="cls-4" points="3188.37 774.94 2739.9 778.02 2749.07 866.3 3164.36 850.49 3188.37 774.94"/><polygon class="cls-5" points="3188.37 774.94 3200.71 763.99 2731.48 767.15 2739.9 778.02 3188.37 774.94"/><polygon class="cls-6" points="3164.36 850.49 3174.81 868.87 2736.1 871.85 2749.07 866.3 3164.36 850.49"/><polygon class="cls-5" points="3171.3 830.53 3133.11 838.63 3169.75 833.53 3171.38 842.52 3171.3 830.53"/><path class="cls-5" d="M2747.22,791.11,2880.65,784S2790.41,785.63,2747.22,791.11Z"/><polygon class="cls-5" points="2739.02 855.49 2747.05 846.77 2756.94 846.71 2746.75 843.94 2739.02 855.49"/><path class="cls-5" d="M3093.63,864l-111.1.75S3082.53,858.57,3093.63,864Z"/><polygon class="cls-7" points="2748.01 856.08 2749.07 866.3 2867.34 861.8 2750.14 863.89 2748.01 856.08"/><polygon class="cls-7" points="3183.39 790.61 3188.37 774.94 3102.71 775.52 3186.41 776.95 3183.39 790.61"/><path class="cls-5" d="M3068.19,783.58l34.58-.24S3080.62,781.48,3068.19,783.58Z"/><polygon class="cls-3" points="2968.8 608.92 2480.58 642.38 2460.81 734.76 2957.74 729.46 2968.8 608.92"/><polygon class="cls-4" points="2955.91 620.37 2489.38 653.75 2476.29 723.09 2946.81 710.26 2955.91 620.37"/><polygon class="cls-5" points="2955.91 620.37 2968.8 608.92 2480.58 642.38 2489.38 653.75 2955.91 620.37"/><polygon class="cls-6" points="2946.81 710.26 2957.74 729.46 2460.81 734.76 2476.29 723.09 2946.81 710.26"/><polygon class="cls-5" points="2951.65 662.4 2935.51 652.3 2951.95 659.43 2958.67 657.79 2951.65 662.4"/><polygon class="cls-5" points="2467.5 719.09 2479.83 704.34 2487.74 706.66 2480.34 701.62 2467.5 719.09"/><path class="cls-5" d="M2561.7,723.48l191.29-1.3S2596.51,725.24,2561.7,723.48Z"/><path class="cls-5" d="M2786.23,721l140.23.89S2835.4,726,2786.23,721Z"/><path class="cls-5" d="M2510.23,665.4c-1.46-1.41,113.6-17.5,113.6-17.5Z"/><path class="cls-8" d="M2653.5,635.06l109.1-6.52S2690,629.75,2653.5,635.06Z"/><path class="cls-7" d="M2476.29,723.09l105-2.86S2489.77,720.76,2476.29,723.09Z"/><path class="cls-5" d="M2811.85,644.1l91.12,6.83S2829.55,642.54,2811.85,644.1Z"/><polygon class="cls-3" points="440.14 1040.2 0 1037.24 4.34 939.03 415.84 941.83 440.14 1040.2"/><polygon class="cls-4" points="428.56 1029.93 7.9 1027.04 16.51 944.23 406.04 959.06 428.56 1029.93"/><polygon class="cls-5" points="428.56 1029.93 440.14 1040.2 0 1037.24 7.9 1027.04 428.56 1029.93"/><polygon class="cls-6" points="406.04 959.06 415.84 941.83 4.34 939.03 16.51 944.23 406.04 959.06"/><polygon class="cls-5" points="412.55 977.78 376.73 970.19 411.09 974.97 412.63 966.54 412.55 977.78"/><path class="cls-5" d="M14.77,1014.76l125.16,6.69S55.28,1019.9,14.77,1014.76Z"/><polygon class="cls-5" points="7.07 954.38 14.6 962.55 23.88 962.61 14.33 965.21 7.07 954.38"/><path class="cls-5" d="M339.7,946.43l-104.22-.71S329.28,951.48,339.7,946.43Z"/><polygon class="cls-7" points="15.51 953.82 16.51 944.23 127.44 948.46 17.5 946.49 15.51 953.82"/><polygon class="cls-7" points="423.89 1015.23 428.56 1029.93 348.21 1029.38 426.72 1028.05 423.89 1015.23"/><path class="cls-5" d="M315.83,1021.83l32.43.22S327.49,1023.79,315.83,1021.83Z"/><polygon class="cls-3" points="930.88 1046.25 461.65 1043.09 466.27 938.39 904.98 941.37 930.88 1046.25"/><polygon class="cls-4" points="918.54 1035.3 470.07 1032.21 479.25 943.94 894.53 959.74 918.54 1035.3"/><polygon class="cls-5" points="918.54 1035.3 930.88 1046.25 461.65 1043.09 470.07 1032.21 918.54 1035.3"/><polygon class="cls-6" points="894.53 959.74 904.98 941.37 466.27 938.39 479.25 943.94 894.53 959.74"/><polygon class="cls-5" points="901.47 979.71 863.28 971.61 899.92 976.7 901.56 967.72 901.47 979.71"/><path class="cls-5" d="M477.4,1019.12l133.43,7.14S520.58,1024.6,477.4,1019.12Z"/><polygon class="cls-5" points="469.19 954.75 477.22 963.46 487.11 963.53 476.92 966.3 469.19 954.75"/><path class="cls-5" d="M823.8,946.28l-111.1-.76S812.7,951.66,823.8,946.28Z"/><polygon class="cls-7" points="478.19 954.15 479.25 943.94 597.51 948.44 480.31 946.35 478.19 954.15"/><polygon class="cls-7" points="913.56 1019.63 918.54 1035.3 832.88 1034.71 916.58 1033.29 913.56 1019.63"/><path class="cls-5" d="M798.36,1026.66l34.58.23S810.79,1028.75,798.36,1026.66Z"/><polygon class="cls-3" points="698.98 1201.32 210.75 1167.86 190.98 1075.47 687.91 1080.78 698.98 1201.32"/><polygon class="cls-4" points="686.08 1189.87 219.55 1156.49 206.46 1087.14 676.98 1099.98 686.08 1189.87"/><polygon class="cls-5" points="686.08 1189.87 698.98 1201.32 210.75 1167.86 219.55 1156.49 686.08 1189.87"/><polygon class="cls-6" points="676.98 1099.98 687.91 1080.78 190.98 1075.47 206.46 1087.14 676.98 1099.98"/><polygon class="cls-5" points="681.83 1147.83 665.68 1157.94 682.13 1150.81 688.85 1152.44 681.83 1147.83"/><polygon class="cls-5" points="197.67 1091.15 210 1105.9 217.91 1103.58 210.51 1108.61 197.67 1091.15"/><path class="cls-5" d="M291.88,1086.76l191.29,1.3S326.68,1085,291.88,1086.76Z"/><path class="cls-5" d="M516.41,1089.25l140.23-.9S565.57,1084.24,516.41,1089.25Z"/><path class="cls-5" d="M240.4,1144.83c-1.45,1.41,113.6,17.51,113.6,17.51Z"/><path class="cls-8" d="M383.67,1175.18l109.1,6.52S420.14,1180.48,383.67,1175.18Z"/><path class="cls-7" d="M206.46,1087.14l105,2.87S220,1089.48,206.46,1087.14Z"/><path class="cls-5" d="M542,1166.13l91.12-6.83S559.72,1167.7,542,1166.13Z"/><polygon class="cls-3" points="1195.77 1074.49 755.63 1077.46 759.96 1175.67 1171.47 1172.87 1195.77 1074.49"/><polygon class="cls-4" points="1184.19 1084.77 763.53 1087.66 772.13 1170.46 1161.66 1155.63 1184.19 1084.77"/><polygon class="cls-5" points="1184.19 1084.77 1195.77 1074.49 755.63 1077.46 763.53 1087.66 1184.19 1084.77"/><polygon class="cls-6" points="1161.66 1155.63 1171.47 1172.87 759.96 1175.67 772.13 1170.46 1161.66 1155.63"/><polygon class="cls-5" points="1168.18 1136.91 1132.36 1144.51 1166.72 1139.73 1168.26 1148.15 1168.18 1136.91"/><path class="cls-5" d="M770.4,1099.94l125.15-6.69S810.91,1094.8,770.4,1099.94Z"/><polygon class="cls-5" points="762.7 1160.32 770.23 1152.15 779.51 1152.08 769.95 1149.48 762.7 1160.32"/><path class="cls-5" d="M1095.32,1168.26l-104.21.71S1084.91,1163.21,1095.32,1168.26Z"/><polygon class="cls-7" points="771.14 1160.88 772.13 1170.46 883.06 1166.24 773.13 1168.2 771.14 1160.88"/><polygon class="cls-7" points="1179.52 1099.47 1184.19 1084.77 1103.84 1085.31 1182.35 1086.65 1179.52 1099.47"/><path class="cls-5" d="M1071.46,1092.87l32.43-.22S1083.12,1090.9,1071.46,1092.87Z"/><polygon class="cls-3" points="1686.51 1068.44 1217.28 1071.61 1221.9 1176.31 1660.61 1173.32 1686.51 1068.44"/><polygon class="cls-4" points="1674.17 1079.4 1225.7 1082.48 1234.87 1170.76 1650.15 1154.95 1674.17 1079.4"/><polygon class="cls-5" points="1674.17 1079.4 1686.51 1068.44 1217.28 1071.61 1225.7 1082.48 1674.17 1079.4"/><polygon class="cls-6" points="1650.15 1154.95 1660.61 1173.32 1221.9 1176.31 1234.87 1170.76 1650.15 1154.95"/><polygon class="cls-5" points="1657.1 1134.99 1618.91 1143.09 1655.55 1137.99 1657.18 1146.98 1657.1 1134.99"/><path class="cls-5" d="M1233,1095.57l133.43-7.13S1276.21,1090.09,1233,1095.57Z"/><polygon class="cls-5" points="1224.82 1159.94 1232.85 1151.23 1242.74 1151.16 1232.55 1148.39 1224.82 1159.94"/><path class="cls-5" d="M1579.43,1168.42l-111.1.75S1568.33,1163,1579.43,1168.42Z"/><polygon class="cls-7" points="1233.81 1160.54 1234.87 1170.76 1353.14 1166.26 1235.94 1168.35 1233.81 1160.54"/><polygon class="cls-7" points="1669.19 1095.07 1674.17 1079.4 1588.51 1079.98 1672.2 1081.4 1669.19 1095.07"/><path class="cls-5" d="M1554,1088l34.58-.24S1566.42,1085.94,1554,1088Z"/><polygon class="cls-3" points="1454.6 913.37 966.38 946.84 946.61 1039.22 1443.54 1033.91 1454.6 913.37"/><polygon class="cls-4" points="1441.71 924.82 975.18 958.2 962.09 1027.55 1432.61 1014.72 1441.71 924.82"/><polygon class="cls-5" points="1441.71 924.82 1454.6 913.37 966.38 946.84 975.18 958.2 1441.71 924.82"/><polygon class="cls-6" points="1432.61 1014.72 1443.54 1033.91 946.61 1039.22 962.09 1027.55 1432.61 1014.72"/><polygon class="cls-5" points="1437.45 966.86 1421.31 956.75 1437.75 963.88 1444.47 962.25 1437.45 966.86"/><polygon class="cls-5" points="953.3 1023.54 965.63 1008.79 973.54 1011.12 966.14 1006.08 953.3 1023.54"/><path class="cls-5" d="M1047.5,1027.94l191.29-1.31S1082.31,1029.7,1047.5,1027.94Z"/><path class="cls-5" d="M1272,1025.44l140.23.9S1321.2,1030.45,1272,1025.44Z"/><path class="cls-5" d="M996,969.86c-1.45-1.41,113.6-17.5,113.6-17.5Z"/><path class="cls-8" d="M1139.3,939.52,1248.4,933S1175.76,934.21,1139.3,939.52Z"/><path class="cls-7" d="M962.09,1027.55l105-2.86S975.57,1025.21,962.09,1027.55Z"/><path class="cls-5" d="M1297.65,948.56l91.12,6.83S1315.35,947,1297.65,948.56Z"/><polygon class="cls-3" points="1954.34 1040.2 1514.2 1037.24 1518.54 939.03 1930.04 941.83 1954.34 1040.2"/><polygon class="cls-4" points="1942.76 1029.93 1522.1 1027.04 1530.71 944.23 1920.24 959.06 1942.76 1029.93"/><polygon class="cls-5" points="1942.76 1029.93 1954.34 1040.2 1514.2 1037.24 1522.1 1027.04 1942.76 1029.93"/><polygon class="cls-6" points="1920.24 959.06 1930.04 941.83 1518.54 939.03 1530.71 944.23 1920.24 959.06"/><polygon class="cls-5" points="1926.75 977.78 1890.93 970.19 1925.29 974.97 1926.83 966.54 1926.75 977.78"/><path class="cls-5" d="M1529,1014.76l125.16,6.69S1569.48,1019.9,1529,1014.76Z"/><polygon class="cls-5" points="1521.27 954.38 1528.8 962.55 1538.08 962.61 1528.53 965.21 1521.27 954.38"/><path class="cls-5" d="M1853.9,946.43l-104.22-.71S1843.48,951.48,1853.9,946.43Z"/><polygon class="cls-7" points="1529.71 953.82 1530.71 944.23 1641.64 948.46 1531.7 946.49 1529.71 953.82"/><polygon class="cls-7" points="1938.09 1015.23 1942.76 1029.93 1862.41 1029.38 1940.92 1028.05 1938.09 1015.23"/><path class="cls-5" d="M1830,1021.83l32.44.22S1841.7,1023.79,1830,1021.83Z"/><polygon class="cls-3" points="2445.09 1046.25 1975.85 1043.09 1980.47 938.39 2419.18 941.37 2445.09 1046.25"/><polygon class="cls-4" points="2432.74 1035.3 1984.27 1032.21 1993.45 943.94 2408.73 959.74 2432.74 1035.3"/><polygon class="cls-5" points="2432.74 1035.3 2445.09 1046.25 1975.85 1043.09 1984.27 1032.21 2432.74 1035.3"/><polygon class="cls-6" points="2408.73 959.74 2419.18 941.37 1980.47 938.39 1993.45 943.94 2408.73 959.74"/><polygon class="cls-5" points="2415.68 979.71 2377.48 971.61 2414.12 976.7 2415.76 967.72 2415.68 979.71"/><path class="cls-5" d="M1991.6,1019.12l133.43,7.14S2034.78,1024.6,1991.6,1019.12Z"/><polygon class="cls-5" points="1983.39 954.75 1991.42 963.46 2001.31 963.53 1991.12 966.3 1983.39 954.75"/><path class="cls-5" d="M2338,946.28l-111.1-.76S2326.9,951.66,2338,946.28Z"/><polygon class="cls-7" points="1992.39 954.15 1993.45 943.94 2111.71 948.44 1994.51 946.35 1992.39 954.15"/><polygon class="cls-7" points="2427.76 1019.63 2432.74 1035.3 2347.09 1034.71 2430.78 1033.29 2427.76 1019.63"/><path class="cls-5" d="M2312.56,1026.66l34.58.23S2325,1028.75,2312.56,1026.66Z"/><polygon class="cls-3" points="2213.18 1201.32 1724.95 1167.86 1705.18 1075.47 2202.11 1080.78 2213.18 1201.32"/><polygon class="cls-4" points="2200.28 1189.87 1733.75 1156.49 1720.66 1087.14 2191.18 1099.98 2200.28 1189.87"/><polygon class="cls-5" points="2200.28 1189.87 2213.18 1201.32 1724.95 1167.86 1733.75 1156.49 2200.28 1189.87"/><polygon class="cls-6" points="2191.18 1099.98 2202.11 1080.78 1705.18 1075.47 1720.66 1087.14 2191.18 1099.98"/><polygon class="cls-5" points="2196.03 1147.83 2179.88 1157.94 2196.33 1150.81 2203.05 1152.44 2196.03 1147.83"/><polygon class="cls-5" points="1711.88 1091.15 1724.2 1105.9 1732.12 1103.58 1724.72 1108.61 1711.88 1091.15"/><path class="cls-5" d="M1806.08,1086.76l191.29,1.3S1840.88,1085,1806.08,1086.76Z"/><path class="cls-5" d="M2030.61,1089.25l140.23-.9S2079.77,1084.24,2030.61,1089.25Z"/><path class="cls-5" d="M1754.6,1144.83c-1.45,1.41,113.6,17.51,113.6,17.51Z"/><path class="cls-8" d="M1897.87,1175.18l109.1,6.52S1934.34,1180.48,1897.87,1175.18Z"/><path class="cls-7" d="M1720.66,1087.14l105,2.87S1734.15,1089.48,1720.66,1087.14Z"/><path class="cls-5" d="M2056.23,1166.13l91.12-6.83S2073.92,1167.7,2056.23,1166.13Z"/><polygon class="cls-3" points="2709.97 1074.49 2269.83 1077.46 2274.16 1175.67 2685.67 1172.87 2709.97 1074.49"/><polygon class="cls-4" points="2698.39 1084.77 2277.73 1087.66 2286.33 1170.46 2675.86 1155.63 2698.39 1084.77"/><polygon class="cls-5" points="2698.39 1084.77 2709.97 1074.49 2269.83 1077.46 2277.73 1087.66 2698.39 1084.77"/><polygon class="cls-6" points="2675.86 1155.63 2685.67 1172.87 2274.16 1175.67 2286.33 1170.46 2675.86 1155.63"/><polygon class="cls-5" points="2682.38 1136.91 2646.56 1144.51 2680.92 1139.73 2682.45 1148.15 2682.38 1136.91"/><path class="cls-5" d="M2284.6,1099.94l125.15-6.69S2325.11,1094.8,2284.6,1099.94Z"/><polygon class="cls-5" points="2276.9 1160.32 2284.43 1152.15 2293.71 1152.08 2284.15 1149.48 2276.9 1160.32"/><path class="cls-5" d="M2609.52,1168.26l-104.21.71S2599.11,1163.21,2609.52,1168.26Z"/><polygon class="cls-7" points="2285.34 1160.88 2286.33 1170.46 2397.26 1166.24 2287.33 1168.2 2285.34 1160.88"/><polygon class="cls-7" points="2693.72 1099.47 2698.39 1084.77 2618.04 1085.31 2696.55 1086.65 2693.72 1099.47"/><path class="cls-5" d="M2585.66,1092.87l32.43-.22S2597.32,1090.9,2585.66,1092.87Z"/><polygon class="cls-3" points="3200.71 1068.44 2731.48 1071.61 2736.1 1176.31 3174.81 1173.32 3200.71 1068.44"/><polygon class="cls-4" points="3188.37 1079.4 2739.9 1082.48 2749.07 1170.76 3164.36 1154.95 3188.37 1079.4"/><polygon class="cls-5" points="3188.37 1079.4 3200.71 1068.44 2731.48 1071.61 2739.9 1082.48 3188.37 1079.4"/><polygon class="cls-6" points="3164.36 1154.95 3174.81 1173.32 2736.1 1176.31 2749.07 1170.76 3164.36 1154.95"/><polygon class="cls-5" points="3171.3 1134.99 3133.11 1143.09 3169.75 1137.99 3171.38 1146.98 3171.3 1134.99"/><path class="cls-5" d="M2747.22,1095.57l133.43-7.13S2790.41,1090.09,2747.22,1095.57Z"/><polygon class="cls-5" points="2739.02 1159.94 2747.05 1151.23 2756.94 1151.16 2746.75 1148.39 2739.02 1159.94"/><path class="cls-5" d="M3093.63,1168.42l-111.1.75S3082.53,1163,3093.63,1168.42Z"/><polygon class="cls-7" points="2748.01 1160.54 2749.07 1170.76 2867.34 1166.26 2750.14 1168.35 2748.01 1160.54"/><polygon class="cls-7" points="3183.39 1095.07 3188.37 1079.4 3102.71 1079.98 3186.41 1081.4 3183.39 1095.07"/><path class="cls-5" d="M3068.19,1088l34.58-.24S3080.62,1085.94,3068.19,1088Z"/><polygon class="cls-3" points="2968.8 913.37 2480.58 946.84 2460.81 1039.22 2957.74 1033.91 2968.8 913.37"/><polygon class="cls-4" points="2955.91 924.82 2489.38 958.2 2476.29 1027.55 2946.81 1014.72 2955.91 924.82"/><polygon class="cls-5" points="2955.91 924.82 2968.8 913.37 2480.58 946.84 2489.38 958.2 2955.91 924.82"/><polygon class="cls-6" points="2946.81 1014.72 2957.74 1033.91 2460.81 1039.22 2476.29 1027.55 2946.81 1014.72"/><polygon class="cls-5" points="2951.65 966.86 2935.51 956.75 2951.95 963.88 2958.67 962.25 2951.65 966.86"/><polygon class="cls-5" points="2467.5 1023.54 2479.83 1008.79 2487.74 1011.12 2480.34 1006.08 2467.5 1023.54"/><path class="cls-5" d="M2561.7,1027.94l191.29-1.31S2596.51,1029.7,2561.7,1027.94Z"/><path class="cls-5" d="M2786.23,1025.44l140.23.9S2835.4,1030.45,2786.23,1025.44Z"/><path class="cls-5" d="M2510.23,969.86c-1.46-1.41,113.6-17.5,113.6-17.5Z"/><path class="cls-8" d="M2653.5,939.52,2762.6,933S2690,934.21,2653.5,939.52Z"/><path class="cls-7" d="M2476.29,1027.55l105-2.86S2489.77,1025.21,2476.29,1027.55Z"/><path class="cls-5" d="M2811.85,948.56l91.12,6.83S2829.55,947,2811.85,948.56Z"/><polygon class="cls-3" points="440.14 1344.66 0 1341.7 4.34 1243.49 415.84 1246.29 440.14 1344.66"/><polygon class="cls-4" points="428.56 1334.38 7.9 1331.49 16.51 1248.69 406.04 1263.52 428.56 1334.38"/><polygon class="cls-5" points="428.56 1334.38 440.14 1344.66 0 1341.7 7.9 1331.49 428.56 1334.38"/><polygon class="cls-6" points="406.04 1263.52 415.84 1246.29 4.34 1243.49 16.51 1248.69 406.04 1263.52"/><polygon class="cls-5" points="412.55 1282.24 376.73 1274.65 411.09 1279.42 412.63 1271 412.55 1282.24"/><path class="cls-5" d="M14.77,1319.22l125.16,6.69S55.28,1324.36,14.77,1319.22Z"/><polygon class="cls-5" points="7.07 1258.83 14.6 1267.01 23.88 1267.07 14.33 1269.67 7.07 1258.83"/><path class="cls-5" d="M339.7,1250.89l-104.22-.71S329.28,1255.94,339.7,1250.89Z"/><polygon class="cls-7" points="15.51 1258.27 16.51 1248.69 127.44 1252.91 17.5 1250.95 15.51 1258.27"/><polygon class="cls-7" points="423.89 1319.69 428.56 1334.38 348.21 1333.84 426.72 1332.51 423.89 1319.69"/><path class="cls-5" d="M315.83,1326.28l32.43.22S327.49,1328.25,315.83,1326.28Z"/><polygon class="cls-3" points="930.88 1350.71 461.65 1347.55 466.27 1242.85 904.98 1245.83 930.88 1350.71"/><polygon class="cls-4" points="918.54 1339.75 470.07 1336.67 479.25 1248.39 894.53 1264.2 918.54 1339.75"/><polygon class="cls-5" points="918.54 1339.75 930.88 1350.71 461.65 1347.55 470.07 1336.67 918.54 1339.75"/><polygon class="cls-6" points="894.53 1264.2 904.98 1245.83 466.27 1242.85 479.25 1248.39 894.53 1264.2"/><polygon class="cls-5" points="901.47 1284.16 863.28 1276.07 899.92 1281.16 901.56 1272.18 901.47 1284.16"/><path class="cls-5" d="M477.4,1323.58l133.43,7.13S520.58,1329.06,477.4,1323.58Z"/><polygon class="cls-5" points="469.19 1259.21 477.22 1267.92 487.11 1267.99 476.92 1270.76 469.19 1259.21"/><path class="cls-5" d="M823.8,1250.74,712.7,1250S812.7,1256.12,823.8,1250.74Z"/><polygon class="cls-7" points="478.19 1258.61 479.25 1248.39 597.51 1252.89 480.31 1250.81 478.19 1258.61"/><polygon class="cls-7" points="913.56 1324.08 918.54 1339.75 832.88 1339.17 916.58 1337.75 913.56 1324.08"/><path class="cls-5" d="M798.36,1331.12l34.58.23S810.79,1333.21,798.36,1331.12Z"/><polygon class="cls-3" points="698.98 1505.78 210.75 1472.31 190.98 1379.93 687.91 1385.24 698.98 1505.78"/><polygon class="cls-4" points="686.08 1494.33 219.55 1460.95 206.46 1391.6 676.98 1404.44 686.08 1494.33"/><polygon class="cls-5" points="686.08 1494.33 698.98 1505.78 210.75 1472.31 219.55 1460.95 686.08 1494.33"/><polygon class="cls-6" points="676.98 1404.44 687.91 1385.24 190.98 1379.93 206.46 1391.6 676.98 1404.44"/><polygon class="cls-5" points="681.83 1452.29 665.68 1462.4 682.13 1455.27 688.85 1456.9 681.83 1452.29"/><polygon class="cls-5" points="197.67 1395.61 210 1410.36 217.91 1408.03 210.51 1413.07 197.67 1395.61"/><path class="cls-5" d="M291.88,1391.22l191.29,1.3S326.68,1389.45,291.88,1391.22Z"/><path class="cls-5" d="M516.41,1393.71l140.23-.9S565.57,1388.7,516.41,1393.71Z"/><path class="cls-5" d="M240.4,1449.29c-1.45,1.41,113.6,17.5,113.6,17.5Z"/><path class="cls-8" d="M383.67,1479.64l109.1,6.52S420.14,1484.94,383.67,1479.64Z"/><path class="cls-7" d="M206.46,1391.6l105,2.86S220,1393.94,206.46,1391.6Z"/><path class="cls-5" d="M542,1470.59l91.12-6.83S559.72,1472.16,542,1470.59Z"/><polygon class="cls-3" points="1195.77 1378.95 755.63 1381.91 759.96 1480.12 1171.47 1477.33 1195.77 1378.95"/><polygon class="cls-4" points="1184.19 1389.23 763.53 1392.12 772.13 1474.92 1161.66 1460.09 1184.19 1389.23"/><polygon class="cls-5" points="1184.19 1389.23 1195.77 1378.95 755.63 1381.91 763.53 1392.12 1184.19 1389.23"/><polygon class="cls-6" points="1161.66 1460.09 1171.47 1477.33 759.96 1480.12 772.13 1474.92 1161.66 1460.09"/><polygon class="cls-5" points="1168.18 1441.37 1132.36 1448.96 1166.72 1444.19 1168.26 1452.61 1168.18 1441.37"/><path class="cls-5" d="M770.4,1404.39l125.15-6.69S810.91,1399.25,770.4,1404.39Z"/><polygon class="cls-5" points="762.7 1464.78 770.23 1456.6 779.51 1456.54 769.95 1453.94 762.7 1464.78"/><path class="cls-5" d="M1095.32,1472.72l-104.21.71S1084.91,1467.67,1095.32,1472.72Z"/><polygon class="cls-7" points="771.14 1465.34 772.13 1474.92 883.06 1470.7 773.13 1472.66 771.14 1465.34"/><polygon class="cls-7" points="1179.52 1403.92 1184.19 1389.23 1103.84 1389.77 1182.35 1391.11 1179.52 1403.92"/><path class="cls-5" d="M1071.46,1397.33l32.43-.22S1083.12,1395.36,1071.46,1397.33Z"/><polygon class="cls-3" points="1686.51 1372.9 1217.28 1376.06 1221.9 1480.77 1660.61 1477.78 1686.51 1372.9"/><polygon class="cls-4" points="1674.17 1383.86 1225.7 1386.94 1234.87 1475.22 1650.15 1459.41 1674.17 1383.86"/><polygon class="cls-5" points="1674.17 1383.86 1686.51 1372.9 1217.28 1376.06 1225.7 1386.94 1674.17 1383.86"/><polygon class="cls-6" points="1650.15 1459.41 1660.61 1477.78 1221.9 1480.77 1234.87 1475.22 1650.15 1459.41"/><polygon class="cls-5" points="1657.1 1439.45 1618.91 1447.54 1655.55 1442.45 1657.18 1451.43 1657.1 1439.45"/><path class="cls-5" d="M1233,1400l133.43-7.13S1276.21,1394.55,1233,1400Z"/><polygon class="cls-5" points="1224.82 1464.4 1232.85 1455.69 1242.74 1455.62 1232.55 1452.85 1224.82 1464.4"/><path class="cls-5" d="M1579.43,1472.87l-111.1.76S1568.33,1467.49,1579.43,1472.87Z"/><polygon class="cls-7" points="1233.81 1465 1234.87 1475.22 1353.14 1470.71 1235.94 1472.81 1233.81 1465"/><polygon class="cls-7" points="1669.19 1399.53 1674.17 1383.86 1588.51 1384.44 1672.2 1385.86 1669.19 1399.53"/><path class="cls-5" d="M1554,1392.49l34.58-.23S1566.42,1390.4,1554,1392.49Z"/><polygon class="cls-3" points="1454.6 1217.83 966.38 1251.3 946.61 1343.68 1443.54 1338.37 1454.6 1217.83"/><polygon class="cls-4" points="1441.71 1229.28 975.18 1262.66 962.09 1332.01 1432.61 1319.17 1441.71 1229.28"/><polygon class="cls-5" points="1441.71 1229.28 1454.6 1217.83 966.38 1251.3 975.18 1262.66 1441.71 1229.28"/><polygon class="cls-6" points="1432.61 1319.17 1443.54 1338.37 946.61 1343.68 962.09 1332.01 1432.61 1319.17"/><polygon class="cls-5" points="1437.45 1271.32 1421.31 1261.21 1437.75 1268.34 1444.47 1266.71 1437.45 1271.32"/><polygon class="cls-5" points="953.3 1328 965.63 1313.25 973.54 1315.58 966.14 1310.54 953.3 1328"/><path class="cls-5" d="M1047.5,1332.39l191.29-1.3S1082.31,1334.16,1047.5,1332.39Z"/><path class="cls-5" d="M1272,1329.9l140.23.9S1321.2,1334.91,1272,1329.9Z"/><path class="cls-5" d="M996,1274.32c-1.45-1.41,113.6-17.5,113.6-17.5Z"/><path class="cls-8" d="M1139.3,1244l109.1-6.52S1175.76,1238.67,1139.3,1244Z"/><path class="cls-7" d="M962.09,1332l105-2.86S975.57,1329.67,962.09,1332Z"/><path class="cls-5" d="M1297.65,1253l91.12,6.83S1315.35,1251.45,1297.65,1253Z"/><polygon class="cls-3" points="1954.34 1344.66 1514.2 1341.7 1518.54 1243.49 1930.04 1246.29 1954.34 1344.66"/><polygon class="cls-4" points="1942.76 1334.38 1522.1 1331.49 1530.71 1248.69 1920.24 1263.52 1942.76 1334.38"/><polygon class="cls-5" points="1942.76 1334.38 1954.34 1344.66 1514.2 1341.7 1522.1 1331.49 1942.76 1334.38"/><polygon class="cls-6" points="1920.24 1263.52 1930.04 1246.29 1518.54 1243.49 1530.71 1248.69 1920.24 1263.52"/><polygon class="cls-5" points="1926.75 1282.24 1890.93 1274.65 1925.29 1279.42 1926.83 1271 1926.75 1282.24"/><path class="cls-5" d="M1529,1319.22l125.16,6.69S1569.48,1324.36,1529,1319.22Z"/><polygon class="cls-5" points="1521.27 1258.83 1528.8 1267.01 1538.08 1267.07 1528.53 1269.67 1521.27 1258.83"/><path class="cls-5" d="M1853.9,1250.89l-104.22-.71S1843.48,1255.94,1853.9,1250.89Z"/><polygon class="cls-7" points="1529.71 1258.27 1530.71 1248.69 1641.64 1252.91 1531.7 1250.95 1529.71 1258.27"/><polygon class="cls-7" points="1938.09 1319.69 1942.76 1334.38 1862.41 1333.84 1940.92 1332.51 1938.09 1319.69"/><path class="cls-5" d="M1830,1326.28l32.44.22S1841.7,1328.25,1830,1326.28Z"/><polygon class="cls-3" points="2445.09 1350.71 1975.85 1347.55 1980.47 1242.85 2419.18 1245.83 2445.09 1350.71"/><polygon class="cls-4" points="2432.74 1339.75 1984.27 1336.67 1993.45 1248.39 2408.73 1264.2 2432.74 1339.75"/><polygon class="cls-5" points="2432.74 1339.75 2445.09 1350.71 1975.85 1347.55 1984.27 1336.67 2432.74 1339.75"/><polygon class="cls-6" points="2408.73 1264.2 2419.18 1245.83 1980.47 1242.85 1993.45 1248.39 2408.73 1264.2"/><polygon class="cls-5" points="2415.68 1284.16 2377.48 1276.07 2414.12 1281.16 2415.76 1272.18 2415.68 1284.16"/><path class="cls-5" d="M1991.6,1323.58l133.43,7.13S2034.78,1329.06,1991.6,1323.58Z"/><polygon class="cls-5" points="1983.39 1259.21 1991.42 1267.92 2001.31 1267.99 1991.12 1270.76 1983.39 1259.21"/><path class="cls-5" d="M2338,1250.74l-111.1-.76S2326.9,1256.12,2338,1250.74Z"/><polygon class="cls-7" points="1992.39 1258.61 1993.45 1248.39 2111.71 1252.89 1994.51 1250.81 1992.39 1258.61"/><polygon class="cls-7" points="2427.76 1324.08 2432.74 1339.75 2347.09 1339.17 2430.78 1337.75 2427.76 1324.08"/><path class="cls-5" d="M2312.56,1331.12l34.58.23S2325,1333.21,2312.56,1331.12Z"/><polygon class="cls-3" points="2213.18 1505.78 1724.95 1472.31 1705.18 1379.93 2202.11 1385.24 2213.18 1505.78"/><polygon class="cls-4" points="2200.28 1494.33 1733.75 1460.95 1720.66 1391.6 2191.18 1404.44 2200.28 1494.33"/><polygon class="cls-5" points="2200.28 1494.33 2213.18 1505.78 1724.95 1472.31 1733.75 1460.95 2200.28 1494.33"/><polygon class="cls-6" points="2191.18 1404.44 2202.11 1385.24 1705.18 1379.93 1720.66 1391.6 2191.18 1404.44"/><polygon class="cls-5" points="2196.03 1452.29 2179.88 1462.4 2196.33 1455.27 2203.05 1456.9 2196.03 1452.29"/><polygon class="cls-5" points="1711.88 1395.61 1724.2 1410.36 1732.12 1408.03 1724.72 1413.07 1711.88 1395.61"/><path class="cls-5" d="M1806.08,1391.22l191.29,1.3S1840.88,1389.45,1806.08,1391.22Z"/><path class="cls-5" d="M2030.61,1393.71l140.23-.9S2079.77,1388.7,2030.61,1393.71Z"/><path class="cls-5" d="M1754.6,1449.29c-1.45,1.41,113.6,17.5,113.6,17.5Z"/><path class="cls-8" d="M1897.87,1479.64l109.1,6.52S1934.34,1484.94,1897.87,1479.64Z"/><path class="cls-7" d="M1720.66,1391.6l105,2.86S1734.15,1393.94,1720.66,1391.6Z"/><path class="cls-5" d="M2056.23,1470.59l91.12-6.83S2073.92,1472.16,2056.23,1470.59Z"/><polygon class="cls-3" points="2709.97 1378.95 2269.83 1381.91 2274.16 1480.12 2685.67 1477.33 2709.97 1378.95"/><polygon class="cls-4" points="2698.39 1389.23 2277.73 1392.12 2286.33 1474.92 2675.86 1460.09 2698.39 1389.23"/><polygon class="cls-5" points="2698.39 1389.23 2709.97 1378.95 2269.83 1381.91 2277.73 1392.12 2698.39 1389.23"/><polygon class="cls-6" points="2675.86 1460.09 2685.67 1477.33 2274.16 1480.12 2286.33 1474.92 2675.86 1460.09"/><polygon class="cls-5" points="2682.38 1441.37 2646.56 1448.96 2680.92 1444.19 2682.45 1452.61 2682.38 1441.37"/><path class="cls-5" d="M2284.6,1404.39l125.15-6.69S2325.11,1399.25,2284.6,1404.39Z"/><polygon class="cls-5" points="2276.9 1464.78 2284.43 1456.6 2293.71 1456.54 2284.15 1453.94 2276.9 1464.78"/><path class="cls-5" d="M2609.52,1472.72l-104.21.71S2599.11,1467.67,2609.52,1472.72Z"/><polygon class="cls-7" points="2285.34 1465.34 2286.33 1474.92 2397.26 1470.7 2287.33 1472.66 2285.34 1465.34"/><polygon class="cls-7" points="2693.72 1403.92 2698.39 1389.23 2618.04 1389.77 2696.55 1391.11 2693.72 1403.92"/><path class="cls-5" d="M2585.66,1397.33l32.43-.22S2597.32,1395.36,2585.66,1397.33Z"/><polygon class="cls-3" points="3200.71 1372.9 2731.48 1376.06 2736.1 1480.77 3174.81 1477.78 3200.71 1372.9"/><polygon class="cls-4" points="3188.37 1383.86 2739.9 1386.94 2749.07 1475.22 3164.36 1459.41 3188.37 1383.86"/><polygon class="cls-5" points="3188.37 1383.86 3200.71 1372.9 2731.48 1376.06 2739.9 1386.94 3188.37 1383.86"/><polygon class="cls-6" points="3164.36 1459.41 3174.81 1477.78 2736.1 1480.77 2749.07 1475.22 3164.36 1459.41"/><polygon class="cls-5" points="3171.3 1439.45 3133.11 1447.54 3169.75 1442.45 3171.38 1451.43 3171.3 1439.45"/><path class="cls-5" d="M2747.22,1400l133.43-7.13S2790.41,1394.55,2747.22,1400Z"/><polygon class="cls-5" points="2739.02 1464.4 2747.05 1455.69 2756.94 1455.62 2746.75 1452.85 2739.02 1464.4"/><path class="cls-5" d="M3093.63,1472.87l-111.1.76S3082.53,1467.49,3093.63,1472.87Z"/><polygon class="cls-7" points="2748.01 1465 2749.07 1475.22 2867.34 1470.71 2750.14 1472.81 2748.01 1465"/><polygon class="cls-7" points="3183.39 1399.53 3188.37 1383.86 3102.71 1384.44 3186.41 1385.86 3183.39 1399.53"/><path class="cls-5" d="M3068.19,1392.49l34.58-.23S3080.62,1390.4,3068.19,1392.49Z"/><polygon class="cls-3" points="2968.8 1217.83 2480.58 1251.3 2460.81 1343.68 2957.74 1338.37 2968.8 1217.83"/><polygon class="cls-4" points="2955.91 1229.28 2489.38 1262.66 2476.29 1332.01 2946.81 1319.17 2955.91 1229.28"/><polygon class="cls-5" points="2955.91 1229.28 2968.8 1217.83 2480.58 1251.3 2489.38 1262.66 2955.91 1229.28"/><polygon class="cls-6" points="2946.81 1319.17 2957.74 1338.37 2460.81 1343.68 2476.29 1332.01 2946.81 1319.17"/><polygon class="cls-5" points="2951.65 1271.32 2935.51 1261.21 2951.95 1268.34 2958.67 1266.71 2951.65 1271.32"/><polygon class="cls-5" points="2467.5 1328 2479.83 1313.25 2487.74 1315.58 2480.34 1310.54 2467.5 1328"/><path class="cls-5" d="M2561.7,1332.39l191.29-1.3S2596.51,1334.16,2561.7,1332.39Z"/><path class="cls-5" d="M2786.23,1329.9l140.23.9S2835.4,1334.91,2786.23,1329.9Z"/><path class="cls-5" d="M2510.23,1274.32c-1.46-1.41,113.6-17.5,113.6-17.5Z"/><path class="cls-8" d="M2653.5,1244l109.1-6.52S2690,1238.67,2653.5,1244Z"/><path class="cls-7" d="M2476.29,1332l105-2.86S2489.77,1329.67,2476.29,1332Z"/><path class="cls-5" d="M2811.85,1253l91.12,6.83S2829.55,1251.45,2811.85,1253Z"/><polygon class="cls-3" points="440.14 1649.12 0 1646.15 4.34 1547.94 415.84 1550.74 440.14 1649.12"/><polygon class="cls-4" points="428.56 1638.84 7.9 1635.95 16.51 1553.15 406.04 1567.97 428.56 1638.84"/><polygon class="cls-5" points="428.56 1638.84 440.14 1649.12 0 1646.15 7.9 1635.95 428.56 1638.84"/><polygon class="cls-6" points="406.04 1567.97 415.84 1550.74 4.34 1547.94 16.51 1553.15 406.04 1567.97"/><polygon class="cls-5" points="412.55 1586.7 376.73 1579.1 411.09 1583.88 412.63 1575.46 412.55 1586.7"/><path class="cls-5" d="M14.77,1623.67l125.16,6.69S55.28,1628.81,14.77,1623.67Z"/><polygon class="cls-5" points="7.07 1563.29 14.6 1571.46 23.88 1571.53 14.33 1574.13 7.07 1563.29"/><path class="cls-5" d="M339.7,1555.35l-104.22-.71S329.28,1560.4,339.7,1555.35Z"/><polygon class="cls-7" points="15.51 1562.73 16.51 1553.15 127.44 1557.37 17.5 1555.41 15.51 1562.73"/><polygon class="cls-7" points="423.89 1624.14 428.56 1638.84 348.21 1638.3 426.72 1636.96 423.89 1624.14"/><path class="cls-5" d="M315.83,1630.74l32.43.22S327.49,1632.71,315.83,1630.74Z"/><polygon class="cls-3" points="930.88 1655.17 461.65 1652.01 466.27 1547.3 904.98 1550.29 930.88 1655.17"/><polygon class="cls-4" points="918.54 1644.21 470.07 1641.13 479.25 1552.85 894.53 1568.66 918.54 1644.21"/><polygon class="cls-5" points="918.54 1644.21 930.88 1655.17 461.65 1652.01 470.07 1641.13 918.54 1644.21"/><polygon class="cls-6" points="894.53 1568.66 904.98 1550.29 466.27 1547.3 479.25 1552.85 894.53 1568.66"/><polygon class="cls-5" points="901.47 1588.62 863.28 1580.52 899.92 1585.62 901.56 1576.63 901.47 1588.62"/><path class="cls-5" d="M477.4,1628l133.43,7.13S520.58,1633.52,477.4,1628Z"/><polygon class="cls-5" points="469.19 1563.66 477.22 1572.38 487.11 1572.44 476.92 1575.22 469.19 1563.66"/><path class="cls-5" d="M823.8,1555.19l-111.1-.75S812.7,1560.58,823.8,1555.19Z"/><polygon class="cls-7" points="478.19 1563.07 479.25 1552.85 597.51 1557.35 480.31 1555.26 478.19 1563.07"/><polygon class="cls-7" points="913.56 1628.54 918.54 1644.21 832.88 1643.63 916.58 1642.21 913.56 1628.54"/><path class="cls-5" d="M798.36,1635.57l34.58.24S810.79,1637.67,798.36,1635.57Z"/><polygon class="cls-3" points="698.98 1810.24 210.75 1776.77 190.98 1684.39 687.91 1689.69 698.98 1810.24"/><polygon class="cls-4" points="686.08 1798.79 219.55 1765.4 206.46 1696.06 676.98 1708.89 686.08 1798.79"/><polygon class="cls-5" points="686.08 1798.79 698.98 1810.24 210.75 1776.77 219.55 1765.4 686.08 1798.79"/><polygon class="cls-6" points="676.98 1708.89 687.91 1689.69 190.98 1684.39 206.46 1696.06 676.98 1708.89"/><polygon class="cls-5" points="681.83 1756.75 665.68 1766.86 682.13 1759.72 688.85 1761.36 681.83 1756.75"/><polygon class="cls-5" points="197.67 1700.07 210 1714.82 217.91 1712.49 210.51 1717.53 197.67 1700.07"/><path class="cls-5" d="M291.88,1695.68l191.29,1.3S326.68,1693.91,291.88,1695.68Z"/><path class="cls-5" d="M516.41,1698.17l140.23-.9S565.57,1693.16,516.41,1698.17Z"/><path class="cls-5" d="M240.4,1753.75c-1.45,1.41,113.6,17.5,113.6,17.5Z"/><path class="cls-8" d="M383.67,1784.09l109.1,6.53S420.14,1789.4,383.67,1784.09Z"/><path class="cls-7" d="M206.46,1696.06l105,2.86S220,1698.4,206.46,1696.06Z"/><path class="cls-5" d="M542,1775.05l91.12-6.83S559.72,1776.62,542,1775.05Z"/><polygon class="cls-3" points="1195.77 1683.41 755.63 1686.37 759.96 1784.58 1171.47 1781.78 1195.77 1683.41"/><polygon class="cls-4" points="1184.19 1693.68 763.53 1696.57 772.13 1779.38 1161.66 1764.55 1184.19 1693.68"/><polygon class="cls-5" points="1184.19 1693.68 1195.77 1683.41 755.63 1686.37 763.53 1696.57 1184.19 1693.68"/><polygon class="cls-6" points="1161.66 1764.55 1171.47 1781.78 759.96 1784.58 772.13 1779.38 1161.66 1764.55"/><polygon class="cls-5" points="1168.18 1745.83 1132.36 1753.42 1166.72 1748.64 1168.26 1757.07 1168.18 1745.83"/><path class="cls-5" d="M770.4,1708.85l125.15-6.69S810.91,1703.71,770.4,1708.85Z"/><polygon class="cls-5" points="762.7 1769.23 770.23 1761.06 779.51 1761 769.95 1758.4 762.7 1769.23"/><path class="cls-5" d="M1095.32,1777.18l-104.21.71S1084.91,1772.13,1095.32,1777.18Z"/><polygon class="cls-7" points="771.14 1769.79 772.13 1779.38 883.06 1775.15 773.13 1777.12 771.14 1769.79"/><polygon class="cls-7" points="1179.52 1708.38 1184.19 1693.68 1103.84 1694.23 1182.35 1695.56 1179.52 1708.38"/><path class="cls-5" d="M1071.46,1701.78l32.43-.22S1083.12,1699.82,1071.46,1701.78Z"/><polygon class="cls-3" points="1686.51 1677.36 1217.28 1680.52 1221.9 1785.22 1660.61 1782.24 1686.51 1677.36"/><polygon class="cls-4" points="1674.17 1688.32 1225.7 1691.4 1234.87 1779.67 1650.15 1763.87 1674.17 1688.32"/><polygon class="cls-5" points="1674.17 1688.32 1686.51 1677.36 1217.28 1680.52 1225.7 1691.4 1674.17 1688.32"/><polygon class="cls-6" points="1650.15 1763.87 1660.61 1782.24 1221.9 1785.22 1234.87 1779.67 1650.15 1763.87"/><polygon class="cls-5" points="1657.1 1743.9 1618.91 1752 1655.55 1746.91 1657.18 1755.89 1657.1 1743.9"/><path class="cls-5" d="M1233,1704.49l133.43-7.14S1276.21,1699,1233,1704.49Z"/><polygon class="cls-5" points="1224.82 1768.86 1232.85 1760.15 1242.74 1760.08 1232.55 1757.31 1224.82 1768.86"/><path class="cls-5" d="M1579.43,1777.33l-111.1.76S1568.33,1772,1579.43,1777.33Z"/><polygon class="cls-7" points="1233.81 1769.46 1234.87 1779.67 1353.14 1775.17 1235.94 1777.26 1233.81 1769.46"/><polygon class="cls-7" points="1669.19 1703.98 1674.17 1688.32 1588.51 1688.9 1672.2 1690.32 1669.19 1703.98"/><path class="cls-5" d="M1554,1697l34.58-.23S1566.42,1694.86,1554,1697Z"/><polygon class="cls-3" points="1454.6 1522.29 966.38 1555.75 946.61 1648.14 1443.54 1642.83 1454.6 1522.29"/><polygon class="cls-4" points="1441.71 1533.74 975.18 1567.12 962.09 1636.47 1432.61 1623.63 1441.71 1533.74"/><polygon class="cls-5" points="1441.71 1533.74 1454.6 1522.29 966.38 1555.75 975.18 1567.12 1441.71 1533.74"/><polygon class="cls-6" points="1432.61 1623.63 1443.54 1642.83 946.61 1648.14 962.09 1636.47 1432.61 1623.63"/><polygon class="cls-5" points="1437.45 1575.78 1421.31 1565.67 1437.75 1572.8 1444.47 1571.16 1437.45 1575.78"/><polygon class="cls-5" points="953.3 1632.46 965.63 1617.71 973.54 1620.03 966.14 1615 953.3 1632.46"/><path class="cls-5" d="M1047.5,1636.85l191.29-1.3S1082.31,1638.61,1047.5,1636.85Z"/><path class="cls-5" d="M1272,1634.36l140.23.9S1321.2,1639.37,1272,1634.36Z"/><path class="cls-5" d="M996,1578.78c-1.45-1.41,113.6-17.51,113.6-17.51Z"/><path class="cls-8" d="M1139.3,1548.43l109.1-6.52S1175.76,1543.13,1139.3,1548.43Z"/><path class="cls-7" d="M962.09,1636.47l105-2.87S975.57,1634.13,962.09,1636.47Z"/><path class="cls-5" d="M1297.65,1557.47l91.12,6.84S1315.35,1555.91,1297.65,1557.47Z"/><polygon class="cls-3" points="1954.34 1649.12 1514.2 1646.15 1518.54 1547.94 1930.04 1550.74 1954.34 1649.12"/><polygon class="cls-4" points="1942.76 1638.84 1522.1 1635.95 1530.71 1553.15 1920.24 1567.97 1942.76 1638.84"/><polygon class="cls-5" points="1942.76 1638.84 1954.34 1649.12 1514.2 1646.15 1522.1 1635.95 1942.76 1638.84"/><polygon class="cls-6" points="1920.24 1567.97 1930.04 1550.74 1518.54 1547.94 1530.71 1553.15 1920.24 1567.97"/><polygon class="cls-5" points="1926.75 1586.7 1890.93 1579.1 1925.29 1583.88 1926.83 1575.46 1926.75 1586.7"/><path class="cls-5" d="M1529,1623.67l125.16,6.69S1569.48,1628.81,1529,1623.67Z"/><polygon class="cls-5" points="1521.27 1563.29 1528.8 1571.46 1538.08 1571.53 1528.53 1574.13 1521.27 1563.29"/><path class="cls-5" d="M1853.9,1555.35l-104.22-.71S1843.48,1560.4,1853.9,1555.35Z"/><polygon class="cls-7" points="1529.71 1562.73 1530.71 1553.15 1641.64 1557.37 1531.7 1555.41 1529.71 1562.73"/><polygon class="cls-7" points="1938.09 1624.14 1942.76 1638.84 1862.41 1638.3 1940.92 1636.96 1938.09 1624.14"/><path class="cls-5" d="M1830,1630.74l32.44.22S1841.7,1632.71,1830,1630.74Z"/><polygon class="cls-3" points="2445.09 1655.17 1975.85 1652.01 1980.47 1547.3 2419.18 1550.29 2445.09 1655.17"/><polygon class="cls-4" points="2432.74 1644.21 1984.27 1641.13 1993.45 1552.85 2408.73 1568.66 2432.74 1644.21"/><polygon class="cls-5" points="2432.74 1644.21 2445.09 1655.17 1975.85 1652.01 1984.27 1641.13 2432.74 1644.21"/><polygon class="cls-6" points="2408.73 1568.66 2419.18 1550.29 1980.47 1547.3 1993.45 1552.85 2408.73 1568.66"/><polygon class="cls-5" points="2415.68 1588.62 2377.48 1580.52 2414.12 1585.62 2415.76 1576.63 2415.68 1588.62"/><path class="cls-5" d="M1991.6,1628l133.43,7.13S2034.78,1633.52,1991.6,1628Z"/><polygon class="cls-5" points="1983.39 1563.66 1991.42 1572.38 2001.31 1572.44 1991.12 1575.22 1983.39 1563.66"/><path class="cls-5" d="M2338,1555.19l-111.1-.75S2326.9,1560.58,2338,1555.19Z"/><polygon class="cls-7" points="1992.39 1563.07 1993.45 1552.85 2111.71 1557.35 1994.51 1555.26 1992.39 1563.07"/><polygon class="cls-7" points="2427.76 1628.54 2432.74 1644.21 2347.09 1643.63 2430.78 1642.21 2427.76 1628.54"/><path class="cls-5" d="M2312.56,1635.57l34.58.24S2325,1637.67,2312.56,1635.57Z"/><polygon class="cls-3" points="2213.18 1810.24 1724.95 1776.77 1705.18 1684.39 2202.11 1689.69 2213.18 1810.24"/><polygon class="cls-4" points="2200.28 1798.79 1733.75 1765.4 1720.66 1696.06 2191.18 1708.89 2200.28 1798.79"/><polygon class="cls-5" points="2200.28 1798.79 2213.18 1810.24 1724.95 1776.77 1733.75 1765.4 2200.28 1798.79"/><polygon class="cls-6" points="2191.18 1708.89 2202.11 1689.69 1705.18 1684.39 1720.66 1696.06 2191.18 1708.89"/><polygon class="cls-5" points="2196.03 1756.75 2179.88 1766.86 2196.33 1759.72 2203.05 1761.36 2196.03 1756.75"/><polygon class="cls-5" points="1711.88 1700.07 1724.2 1714.82 1732.12 1712.49 1724.72 1717.53 1711.88 1700.07"/><path class="cls-5" d="M1806.08,1695.68l191.29,1.3S1840.88,1693.91,1806.08,1695.68Z"/><path class="cls-5" d="M2030.61,1698.17l140.23-.9S2079.77,1693.16,2030.61,1698.17Z"/><path class="cls-5" d="M1754.6,1753.75c-1.45,1.41,113.6,17.5,113.6,17.5Z"/><path class="cls-8" d="M1897.87,1784.09l109.1,6.53S1934.34,1789.4,1897.87,1784.09Z"/><path class="cls-7" d="M1720.66,1696.06l105,2.86S1734.15,1698.4,1720.66,1696.06Z"/><path class="cls-5" d="M2056.23,1775.05l91.12-6.83S2073.92,1776.62,2056.23,1775.05Z"/><polygon class="cls-3" points="2709.97 1683.41 2269.83 1686.37 2274.16 1784.58 2685.67 1781.78 2709.97 1683.41"/><polygon class="cls-4" points="2698.39 1693.68 2277.73 1696.57 2286.33 1779.38 2675.86 1764.55 2698.39 1693.68"/><polygon class="cls-5" points="2698.39 1693.68 2709.97 1683.41 2269.83 1686.37 2277.73 1696.57 2698.39 1693.68"/><polygon class="cls-6" points="2675.86 1764.55 2685.67 1781.78 2274.16 1784.58 2286.33 1779.38 2675.86 1764.55"/><polygon class="cls-5" points="2682.38 1745.83 2646.56 1753.42 2680.92 1748.64 2682.45 1757.07 2682.38 1745.83"/><path class="cls-5" d="M2284.6,1708.85l125.15-6.69S2325.11,1703.71,2284.6,1708.85Z"/><polygon class="cls-5" points="2276.9 1769.23 2284.43 1761.06 2293.71 1761 2284.15 1758.4 2276.9 1769.23"/><path class="cls-5" d="M2609.52,1777.18l-104.21.71S2599.11,1772.13,2609.52,1777.18Z"/><polygon class="cls-7" points="2285.34 1769.79 2286.33 1779.38 2397.26 1775.15 2287.33 1777.12 2285.34 1769.79"/><polygon class="cls-7" points="2693.72 1708.38 2698.39 1693.68 2618.04 1694.23 2696.55 1695.56 2693.72 1708.38"/><path class="cls-5" d="M2585.66,1701.78l32.43-.22S2597.32,1699.82,2585.66,1701.78Z"/><polygon class="cls-3" points="3200.71 1677.36 2731.48 1680.52 2736.1 1785.22 3174.81 1782.24 3200.71 1677.36"/><polygon class="cls-4" points="3188.37 1688.32 2739.9 1691.4 2749.07 1779.67 3164.36 1763.87 3188.37 1688.32"/><polygon class="cls-5" points="3188.37 1688.32 3200.71 1677.36 2731.48 1680.52 2739.9 1691.4 3188.37 1688.32"/><polygon class="cls-6" points="3164.36 1763.87 3174.81 1782.24 2736.1 1785.22 2749.07 1779.67 3164.36 1763.87"/><polygon class="cls-5" points="3171.3 1743.9 3133.11 1752 3169.75 1746.91 3171.38 1755.89 3171.3 1743.9"/><path class="cls-5" d="M2747.22,1704.49l133.43-7.14S2790.41,1699,2747.22,1704.49Z"/><polygon class="cls-5" points="2739.02 1768.86 2747.05 1760.15 2756.94 1760.08 2746.75 1757.31 2739.02 1768.86"/><path class="cls-5" d="M3093.63,1777.33l-111.1.76S3082.53,1772,3093.63,1777.33Z"/><polygon class="cls-7" points="2748.01 1769.46 2749.07 1779.67 2867.34 1775.17 2750.14 1777.26 2748.01 1769.46"/><polygon class="cls-7" points="3183.39 1703.98 3188.37 1688.32 3102.71 1688.9 3186.41 1690.32 3183.39 1703.98"/><path class="cls-5" d="M3068.19,1697l34.58-.23S3080.62,1694.86,3068.19,1697Z"/><polygon class="cls-3" points="2968.8 1522.29 2480.58 1555.75 2460.81 1648.14 2957.74 1642.83 2968.8 1522.29"/><polygon class="cls-4" points="2955.91 1533.74 2489.38 1567.12 2476.29 1636.47 2946.81 1623.63 2955.91 1533.74"/><polygon class="cls-5" points="2955.91 1533.74 2968.8 1522.29 2480.58 1555.75 2489.38 1567.12 2955.91 1533.74"/><polygon class="cls-6" points="2946.81 1623.63 2957.74 1642.83 2460.81 1648.14 2476.29 1636.47 2946.81 1623.63"/><polygon class="cls-5" points="2951.65 1575.78 2935.51 1565.67 2951.95 1572.8 2958.67 1571.16 2951.65 1575.78"/><polygon class="cls-5" points="2467.5 1632.46 2479.83 1617.71 2487.74 1620.03 2480.34 1615 2467.5 1632.46"/><path class="cls-5" d="M2561.7,1636.85l191.29-1.3S2596.51,1638.61,2561.7,1636.85Z"/><path class="cls-5" d="M2786.23,1634.36l140.23.9S2835.4,1639.37,2786.23,1634.36Z"/><path class="cls-5" d="M2510.23,1578.78c-1.46-1.41,113.6-17.51,113.6-17.51Z"/><path class="cls-8" d="M2653.5,1548.43l109.1-6.52S2690,1543.13,2653.5,1548.43Z"/><path class="cls-7" d="M2476.29,1636.47l105-2.87S2489.77,1634.13,2476.29,1636.47Z"/><path class="cls-5" d="M2811.85,1557.47l91.12,6.84S2829.55,1555.91,2811.85,1557.47Z"/><polygon class="cls-3" points="440.14 1953.58 0 1950.61 4.34 1852.4 415.84 1855.2 440.14 1953.58"/><polygon class="cls-4" points="428.56 1943.3 7.9 1940.41 16.51 1857.61 406.04 1872.43 428.56 1943.3"/><polygon class="cls-5" points="428.56 1943.3 440.14 1953.58 0 1950.61 7.9 1940.41 428.56 1943.3"/><polygon class="cls-6" points="406.04 1872.43 415.84 1855.2 4.34 1852.4 16.51 1857.61 406.04 1872.43"/><polygon class="cls-5" points="412.55 1891.16 376.73 1883.56 411.09 1888.34 412.63 1879.91 412.55 1891.16"/><path class="cls-5" d="M14.77,1928.13l125.16,6.69S55.28,1933.27,14.77,1928.13Z"/><polygon class="cls-5" points="7.07 1867.75 14.6 1875.92 23.88 1875.98 14.33 1878.58 7.07 1867.75"/><path class="cls-5" d="M339.7,1859.8l-104.22-.71S329.28,1864.85,339.7,1859.8Z"/><polygon class="cls-7" points="15.51 1867.19 16.51 1857.61 127.44 1861.83 17.5 1859.87 15.51 1867.19"/><polygon class="cls-7" points="423.89 1928.6 428.56 1943.3 348.21 1942.75 426.72 1941.42 423.89 1928.6"/><path class="cls-5" d="M315.83,1935.2l32.43.22S327.49,1937.17,315.83,1935.2Z"/><polygon class="cls-3" points="930.88 1959.62 461.65 1956.46 466.27 1851.76 904.98 1854.74 930.88 1959.62"/><polygon class="cls-4" points="918.54 1948.67 470.07 1945.59 479.25 1857.31 894.53 1873.12 918.54 1948.67"/><polygon class="cls-5" points="918.54 1948.67 930.88 1959.62 461.65 1956.46 470.07 1945.59 918.54 1948.67"/><polygon class="cls-6" points="894.53 1873.12 904.98 1854.74 466.27 1851.76 479.25 1857.31 894.53 1873.12"/><polygon class="cls-5" points="901.47 1893.08 863.28 1884.98 899.92 1890.08 901.56 1881.09 901.47 1893.08"/><path class="cls-5" d="M477.4,1932.5l133.43,7.13S520.58,1938,477.4,1932.5Z"/><polygon class="cls-5" points="469.19 1868.12 477.22 1876.84 487.11 1876.9 476.92 1879.67 469.19 1868.12"/><path class="cls-5" d="M823.8,1859.65l-111.1-.75S812.7,1865,823.8,1859.65Z"/><polygon class="cls-7" points="478.19 1867.53 479.25 1857.31 597.51 1861.81 480.31 1859.72 478.19 1867.53"/><polygon class="cls-7" points="913.56 1933 918.54 1948.67 832.88 1948.09 916.58 1946.66 913.56 1933"/><path class="cls-5" d="M798.36,1940l34.58.24S810.79,1942.13,798.36,1940Z"/><polygon class="cls-3" points="698.98 2114.69 210.75 2081.23 190.98 1988.85 687.91 1994.15 698.98 2114.69"/><polygon class="cls-4" points="686.08 2103.24 219.55 2069.86 206.46 2000.52 676.98 2013.35 686.08 2103.24"/><polygon class="cls-5" points="686.08 2103.24 698.98 2114.69 210.75 2081.23 219.55 2069.86 686.08 2103.24"/><polygon class="cls-6" points="676.98 2013.35 687.91 1994.15 190.98 1988.85 206.46 2000.52 676.98 2013.35"/><polygon class="cls-5" points="681.83 2061.21 665.68 2071.31 682.13 2064.18 688.85 2065.82 681.83 2061.21"/><polygon class="cls-5" points="197.67 2004.53 210 2019.27 217.91 2016.95 210.51 2021.99 197.67 2004.53"/><path class="cls-5" d="M291.88,2000.13l191.29,1.3S326.68,1998.37,291.88,2000.13Z"/><path class="cls-5" d="M516.41,2002.62l140.23-.9S565.57,1997.62,516.41,2002.62Z"/><path class="cls-5" d="M240.4,2058.2c-1.45,1.42,113.6,17.51,113.6,17.51Z"/><path class="cls-8" d="M383.67,2088.55l109.1,6.52S420.14,2093.86,383.67,2088.55Z"/><path class="cls-7" d="M206.46,2000.52l105,2.86S220,2002.85,206.46,2000.52Z"/><path class="cls-5" d="M542,2079.51l91.12-6.83S559.72,2081.07,542,2079.51Z"/><polygon class="cls-3" points="1195.77 1987.87 755.63 1990.83 759.96 2089.04 1171.47 2086.24 1195.77 1987.87"/><polygon class="cls-4" points="1184.19 1998.14 763.53 2001.03 772.13 2083.84 1161.66 2069.01 1184.19 1998.14"/><polygon class="cls-5" points="1184.19 1998.14 1195.77 1987.87 755.63 1990.83 763.53 2001.03 1184.19 1998.14"/><polygon class="cls-6" points="1161.66 2069.01 1171.47 2086.24 759.96 2089.04 772.13 2083.84 1161.66 2069.01"/><polygon class="cls-5" points="1168.18 2050.28 1132.36 2057.88 1166.72 2053.1 1168.26 2061.53 1168.18 2050.28"/><path class="cls-5" d="M770.4,2013.31l125.15-6.69S810.91,2008.17,770.4,2013.31Z"/><polygon class="cls-5" points="762.7 2073.69 770.23 2065.52 779.51 2065.46 769.95 2062.86 762.7 2073.69"/><path class="cls-5" d="M1095.32,2081.64l-104.21.71S1084.91,2076.59,1095.32,2081.64Z"/><polygon class="cls-7" points="771.14 2074.25 772.13 2083.84 883.06 2079.61 773.13 2081.57 771.14 2074.25"/><polygon class="cls-7" points="1179.52 2012.84 1184.19 1998.14 1103.84 1998.69 1182.35 2000.02 1179.52 2012.84"/><path class="cls-5" d="M1071.46,2006.24l32.43-.22S1083.12,2004.28,1071.46,2006.24Z"/><polygon class="cls-3" points="1686.51 1981.82 1217.28 1984.98 1221.9 2089.68 1660.61 2086.7 1686.51 1981.82"/><polygon class="cls-4" points="1674.17 1992.77 1225.7 1995.86 1234.87 2084.13 1650.15 2068.32 1674.17 1992.77"/><polygon class="cls-5" points="1674.17 1992.77 1686.51 1981.82 1217.28 1984.98 1225.7 1995.86 1674.17 1992.77"/><polygon class="cls-6" points="1650.15 2068.32 1660.61 2086.7 1221.9 2089.68 1234.87 2084.13 1650.15 2068.32"/><polygon class="cls-5" points="1657.1 2048.36 1618.91 2056.46 1655.55 2051.37 1657.18 2060.35 1657.1 2048.36"/><path class="cls-5" d="M1233,2008.94l133.43-7.13S1276.21,2003.46,1233,2008.94Z"/><polygon class="cls-5" points="1224.82 2073.32 1232.85 2064.61 1242.74 2064.54 1232.55 2061.77 1224.82 2073.32"/><path class="cls-5" d="M1579.43,2081.79l-111.1.75S1568.33,2076.4,1579.43,2081.79Z"/><polygon class="cls-7" points="1233.81 2073.91 1234.87 2084.13 1353.14 2079.63 1235.94 2081.72 1233.81 2073.91"/><polygon class="cls-7" points="1669.19 2008.44 1674.17 1992.77 1588.51 1993.36 1672.2 1994.78 1669.19 2008.44"/><path class="cls-5" d="M1554,2001.41l34.58-.24S1566.42,1999.31,1554,2001.41Z"/><polygon class="cls-3" points="1454.6 1826.75 966.38 1860.21 946.61 1952.6 1443.54 1947.29 1454.6 1826.75"/><polygon class="cls-4" points="1441.71 1838.2 975.18 1871.58 962.09 1940.93 1432.61 1928.09 1441.71 1838.2"/><polygon class="cls-5" points="1441.71 1838.2 1454.6 1826.75 966.38 1860.21 975.18 1871.58 1441.71 1838.2"/><polygon class="cls-6" points="1432.61 1928.09 1443.54 1947.29 946.61 1952.6 962.09 1940.93 1432.61 1928.09"/><polygon class="cls-5" points="1437.45 1880.23 1421.31 1870.13 1437.75 1877.26 1444.47 1875.62 1437.45 1880.23"/><polygon class="cls-5" points="953.3 1936.92 965.63 1922.17 973.54 1924.49 966.14 1919.45 953.3 1936.92"/><path class="cls-5" d="M1047.5,1941.31l191.29-1.3S1082.31,1943.07,1047.5,1941.31Z"/><path class="cls-5" d="M1272,1938.82l140.23.9S1321.2,1943.82,1272,1938.82Z"/><path class="cls-5" d="M996,1883.24c-1.45-1.42,113.6-17.51,113.6-17.51Z"/><path class="cls-8" d="M1139.3,1852.89l109.1-6.52S1175.76,1847.58,1139.3,1852.89Z"/><path class="cls-7" d="M962.09,1940.93l105-2.87S975.57,1938.59,962.09,1940.93Z"/><path class="cls-5" d="M1297.65,1861.93l91.12,6.84S1315.35,1860.37,1297.65,1861.93Z"/><polygon class="cls-3" points="1954.34 1953.58 1514.2 1950.61 1518.54 1852.4 1930.04 1855.2 1954.34 1953.58"/><polygon class="cls-4" points="1942.76 1943.3 1522.1 1940.41 1530.71 1857.61 1920.24 1872.43 1942.76 1943.3"/><polygon class="cls-5" points="1942.76 1943.3 1954.34 1953.58 1514.2 1950.61 1522.1 1940.41 1942.76 1943.3"/><polygon class="cls-6" points="1920.24 1872.43 1930.04 1855.2 1518.54 1852.4 1530.71 1857.61 1920.24 1872.43"/><polygon class="cls-5" points="1926.75 1891.16 1890.93 1883.56 1925.29 1888.34 1926.83 1879.91 1926.75 1891.16"/><path class="cls-5" d="M1529,1928.13l125.16,6.69S1569.48,1933.27,1529,1928.13Z"/><polygon class="cls-5" points="1521.27 1867.75 1528.8 1875.92 1538.08 1875.98 1528.53 1878.58 1521.27 1867.75"/><path class="cls-5" d="M1853.9,1859.8l-104.22-.71S1843.48,1864.85,1853.9,1859.8Z"/><polygon class="cls-7" points="1529.71 1867.19 1530.71 1857.61 1641.64 1861.83 1531.7 1859.87 1529.71 1867.19"/><polygon class="cls-7" points="1938.09 1928.6 1942.76 1943.3 1862.41 1942.75 1940.92 1941.42 1938.09 1928.6"/><path class="cls-5" d="M1830,1935.2l32.44.22S1841.7,1937.17,1830,1935.2Z"/><polygon class="cls-3" points="2445.09 1959.62 1975.85 1956.46 1980.47 1851.76 2419.18 1854.74 2445.09 1959.62"/><polygon class="cls-4" points="2432.74 1948.67 1984.27 1945.59 1993.45 1857.31 2408.73 1873.12 2432.74 1948.67"/><polygon class="cls-5" points="2432.74 1948.67 2445.09 1959.62 1975.85 1956.46 1984.27 1945.59 2432.74 1948.67"/><polygon class="cls-6" points="2408.73 1873.12 2419.18 1854.74 1980.47 1851.76 1993.45 1857.31 2408.73 1873.12"/><polygon class="cls-5" points="2415.68 1893.08 2377.48 1884.98 2414.12 1890.08 2415.76 1881.09 2415.68 1893.08"/><path class="cls-5" d="M1991.6,1932.5l133.43,7.13S2034.78,1938,1991.6,1932.5Z"/><polygon class="cls-5" points="1983.39 1868.12 1991.42 1876.84 2001.31 1876.9 1991.12 1879.67 1983.39 1868.12"/><path class="cls-5" d="M2338,1859.65l-111.1-.75S2326.9,1865,2338,1859.65Z"/><polygon class="cls-7" points="1992.39 1867.53 1993.45 1857.31 2111.71 1861.81 1994.51 1859.72 1992.39 1867.53"/><polygon class="cls-7" points="2427.76 1933 2432.74 1948.67 2347.09 1948.09 2430.78 1946.66 2427.76 1933"/><path class="cls-5" d="M2312.56,1940l34.58.24S2325,1942.13,2312.56,1940Z"/><polygon class="cls-3" points="2213.18 2114.69 1724.95 2081.23 1705.18 1988.85 2202.11 1994.15 2213.18 2114.69"/><polygon class="cls-4" points="2200.28 2103.24 1733.75 2069.86 1720.66 2000.52 2191.18 2013.35 2200.28 2103.24"/><polygon class="cls-5" points="2200.28 2103.24 2213.18 2114.69 1724.95 2081.23 1733.75 2069.86 2200.28 2103.24"/><polygon class="cls-6" points="2191.18 2013.35 2202.11 1994.15 1705.18 1988.85 1720.66 2000.52 2191.18 2013.35"/><polygon class="cls-5" points="2196.03 2061.21 2179.88 2071.31 2196.33 2064.18 2203.05 2065.82 2196.03 2061.21"/><polygon class="cls-5" points="1711.88 2004.53 1724.2 2019.27 1732.12 2016.95 1724.72 2021.99 1711.88 2004.53"/><path class="cls-5" d="M1806.08,2000.13l191.29,1.3S1840.88,1998.37,1806.08,2000.13Z"/><path class="cls-5" d="M2030.61,2002.62l140.23-.9S2079.77,1997.62,2030.61,2002.62Z"/><path class="cls-5" d="M1754.6,2058.2c-1.45,1.42,113.6,17.51,113.6,17.51Z"/><path class="cls-8" d="M1897.87,2088.55l109.1,6.52S1934.34,2093.86,1897.87,2088.55Z"/><path class="cls-7" d="M1720.66,2000.52l105,2.86S1734.15,2002.85,1720.66,2000.52Z"/><path class="cls-5" d="M2056.23,2079.51l91.12-6.83S2073.92,2081.07,2056.23,2079.51Z"/><polygon class="cls-3" points="2709.97 1987.87 2269.83 1990.83 2274.16 2089.04 2685.67 2086.24 2709.97 1987.87"/><polygon class="cls-4" points="2698.39 1998.14 2277.73 2001.03 2286.33 2083.84 2675.86 2069.01 2698.39 1998.14"/><polygon class="cls-5" points="2698.39 1998.14 2709.97 1987.87 2269.83 1990.83 2277.73 2001.03 2698.39 1998.14"/><polygon class="cls-6" points="2675.86 2069.01 2685.67 2086.24 2274.16 2089.04 2286.33 2083.84 2675.86 2069.01"/><polygon class="cls-5" points="2682.38 2050.28 2646.56 2057.88 2680.92 2053.1 2682.45 2061.53 2682.38 2050.28"/><path class="cls-5" d="M2284.6,2013.31l125.15-6.69S2325.11,2008.17,2284.6,2013.31Z"/><polygon class="cls-5" points="2276.9 2073.69 2284.43 2065.52 2293.71 2065.46 2284.15 2062.86 2276.9 2073.69"/><path class="cls-5" d="M2609.52,2081.64l-104.21.71S2599.11,2076.59,2609.52,2081.64Z"/><polygon class="cls-7" points="2285.34 2074.25 2286.33 2083.84 2397.26 2079.61 2287.33 2081.57 2285.34 2074.25"/><polygon class="cls-7" points="2693.72 2012.84 2698.39 1998.14 2618.04 1998.69 2696.55 2000.02 2693.72 2012.84"/><path class="cls-5" d="M2585.66,2006.24l32.43-.22S2597.32,2004.28,2585.66,2006.24Z"/><polygon class="cls-3" points="3200.71 1981.82 2731.48 1984.98 2736.1 2089.68 3174.81 2086.7 3200.71 1981.82"/><polygon class="cls-4" points="3188.37 1992.77 2739.9 1995.86 2749.07 2084.13 3164.36 2068.32 3188.37 1992.77"/><polygon class="cls-5" points="3188.37 1992.77 3200.71 1981.82 2731.48 1984.98 2739.9 1995.86 3188.37 1992.77"/><polygon class="cls-6" points="3164.36 2068.32 3174.81 2086.7 2736.1 2089.68 2749.07 2084.13 3164.36 2068.32"/><polygon class="cls-5" points="3171.3 2048.36 3133.11 2056.46 3169.75 2051.37 3171.38 2060.35 3171.3 2048.36"/><path class="cls-5" d="M2747.22,2008.94l133.43-7.13S2790.41,2003.46,2747.22,2008.94Z"/><polygon class="cls-5" points="2739.02 2073.32 2747.05 2064.61 2756.94 2064.54 2746.75 2061.77 2739.02 2073.32"/><path class="cls-5" d="M3093.63,2081.79l-111.1.75S3082.53,2076.4,3093.63,2081.79Z"/><polygon class="cls-7" points="2748.01 2073.91 2749.07 2084.13 2867.34 2079.63 2750.14 2081.72 2748.01 2073.91"/><polygon class="cls-7" points="3183.39 2008.44 3188.37 1992.77 3102.71 1993.36 3186.41 1994.78 3183.39 2008.44"/><path class="cls-5" d="M3068.19,2001.41l34.58-.24S3080.62,1999.31,3068.19,2001.41Z"/><polygon class="cls-3" points="2968.8 1826.75 2480.58 1860.21 2460.81 1952.6 2957.74 1947.29 2968.8 1826.75"/><polygon class="cls-4" points="2955.91 1838.2 2489.38 1871.58 2476.29 1940.93 2946.81 1928.09 2955.91 1838.2"/><polygon class="cls-5" points="2955.91 1838.2 2968.8 1826.75 2480.58 1860.21 2489.38 1871.58 2955.91 1838.2"/><polygon class="cls-6" points="2946.81 1928.09 2957.74 1947.29 2460.81 1952.6 2476.29 1940.93 2946.81 1928.09"/><polygon class="cls-5" points="2951.65 1880.23 2935.51 1870.13 2951.95 1877.26 2958.67 1875.62 2951.65 1880.23"/><polygon class="cls-5" points="2467.5 1936.92 2479.83 1922.17 2487.74 1924.49 2480.34 1919.45 2467.5 1936.92"/><path class="cls-5" d="M2561.7,1941.31,2753,1940S2596.51,1943.07,2561.7,1941.31Z"/><path class="cls-5" d="M2786.23,1938.82l140.23.9S2835.4,1943.82,2786.23,1938.82Z"/><path class="cls-5" d="M2510.23,1883.24c-1.46-1.42,113.6-17.51,113.6-17.51Z"/><path class="cls-8" d="M2653.5,1852.89l109.1-6.52S2690,1847.58,2653.5,1852.89Z"/><path class="cls-7" d="M2476.29,1940.93l105-2.87S2489.77,1938.59,2476.29,1940.93Z"/><path class="cls-5" d="M2811.85,1861.93l91.12,6.84S2829.55,1860.37,2811.85,1861.93Z"/></g></g></g></svg>